<svg id="logo" width="42" height="42" viewBox="0 0 256 272" fill="none" xmlns="http://www.w3.org/2000/svg">
<path d="M108.943 179.37L40.572 139.959C29.302 133.47 21.7887 123.02 18.6467 111.408C15.5048 99.7967 16.8709 86.9558 23.3597 75.7541C30.19 63.9376 38.2497 59.7711 46.5827 55.1265L46.651 55.0582C34.9712 62.7082 34.9029 82.4478 47.8805 89.8928L127.932 136.134L127.317 168.988C127.249 178.345 117.072 184.083 108.943 179.37Z" fill="hsl(var(--logo))"/>
<path d="M72.1964 94.4692C68.5763 96.5182 68.5763 101.778 72.1964 103.827L48.0171 89.8245C35.0395 82.3112 35.1078 62.6399 46.7876 54.99L109.285 19.1991C117.345 14.5545 127.454 20.3603 127.454 29.6495L127.658 56.0145C127.658 60.3176 125.404 64.2792 121.716 66.3966L72.1964 94.4692Z" fill="hsl(var(--logo-2))"/>
<path d="M92.9605 243.575L22.4034 202.798C19.1932 200.954 17.2807 197.539 17.2807 193.918V167.007C17.2807 157.513 27.5262 151.571 35.7908 156.352L106.416 197.129C109.626 198.973 111.539 202.388 111.539 206.008V232.919C111.471 242.345 101.225 248.288 92.9605 243.575Z" fill="hsl(var(--logo))"/>
<path d="M147.057 92.7616L215.428 132.241C226.698 138.73 234.211 149.18 237.353 160.791C240.495 172.403 239.129 185.244 232.64 196.446C225.81 208.262 217.75 212.429 209.417 217.073L209.349 217.142C221.029 209.492 221.097 189.752 208.12 182.307L128.068 136.066L128.683 103.212C128.751 93.8544 138.928 88.117 147.057 92.7616Z" fill="hsl(var(--logo))"/>
<path d="M183.804 177.731C187.424 175.681 187.424 170.422 183.804 168.373L207.983 182.375C220.961 189.889 220.892 209.56 209.212 217.21L146.852 253.001C138.792 257.645 128.683 251.839 128.683 242.55L128.478 216.185C128.478 211.882 130.732 207.921 134.42 205.803L183.804 177.731Z" fill="hsl(var(--logo-2))"/>
<path d="M163.04 28.625L233.597 69.4019C236.807 71.2461 238.719 74.6613 238.719 78.2813V105.193C238.719 114.687 228.474 120.629 220.209 115.848L149.584 75.0711C146.374 73.2269 144.461 69.8118 144.461 66.1917V39.2803C144.529 29.7861 154.775 23.9121 163.04 28.625Z" fill="hsl(var(--logo))"/>
</svg>
