<svg width="56" height="57" viewBox="0 0 56 57" fill="none" xmlns="http://www.w3.org/2000/svg">
<path d="M32.3333 35.1718C33.405 35.1718 34.4234 35.1613 35.4409 35.1864C35.5541 35.1892 35.7353 35.3793 35.7619 35.508C36.141 37.3462 36.5143 39.186 36.8557 41.0316C37.0327 41.9889 36.5539 42.5393 35.5916 42.5399C30.5591 42.5437 32.6641 42.5434 27.6316 42.5395C26.6279 42.5388 26.3902 41.9435 26.368 40.9185C26.2162 33.9127 26.2162 27.9722 26.2162 20.6974C26.4057 19.7441 26.9403 19.2875 27.9273 19.2848C29.9924 19.2795 29.0982 19.2801 31.1633 19.2862C32.0693 19.2888 32.5962 19.6946 32.7799 20.5735C33.1969 22.5679 33.5896 24.5674 34.0024 26.6149H30.6178C30.4103 25.5762 30.1962 24.5259 29.9915 23.4735C29.9062 23.0345 29.8128 22.7798 29.5821 22.6472C29.4605 22.7357 29.4452 22.9111 29.4452 23.2417C29.4452 28.4672 29.4452 31.8775 29.7752 38.2582C29.8852 38.7532 30.3173 39.259 31.1633 39.2598C31.3816 39.26 31.5527 39.2602 31.6844 39.2603C31.7956 39.2602 31.9285 39.26 32.0858 39.2598C32.8857 39.2588 33.0696 39.0185 32.9161 38.2333C32.7211 37.2359 32.5356 36.2367 32.3333 35.1718Z" fill="hsl(var(--neutral))"/>
<path d="M43.3125 51.3886H12.6875C12.9345 50.5346 13.0708 49.699 13.417 48.962C13.8198 48.1045 14.6296 47.7028 15.5842 47.7022C23.8843 47.6964 32.1844 47.6968 40.4843 47.7012C41.7176 47.7018 42.7217 48.515 42.9919 49.7149C43.1136 50.2558 43.2017 50.8042 43.3125 51.3886Z" fill="hsl(var(--neutral))"/>
<path d="M28.0267 14.2472C27.1048 14.2472 26.1809 14.2804 25.262 14.2282C24.9624 14.2112 24.5955 14.0436 24.3958 13.8219C23.0061 12.2786 22.7953 9.98208 23.8334 8.18377C24.8728 6.38296 26.9826 5.43085 29.0117 5.84673C31.0389 6.26224 32.6409 7.96617 32.8674 10.0128C33.0267 11.4513 32.6694 12.765 31.6614 13.8353C31.4568 14.0527 31.0917 14.2124 30.7914 14.2289C29.8723 14.2794 28.9486 14.2473 28.0267 14.2472Z" fill="hsl(var(--neutral))"/>
<path d="M28.0746 43.7275C31.4621 43.7275 34.8495 43.7268 38.237 43.7278C39.2194 43.7282 39.8525 44.2731 39.8503 45.11C39.848 45.9552 39.2211 46.4986 38.2343 46.4988C31.4393 46.5001 24.6444 46.5002 17.8494 46.4988C16.8407 46.4986 16.2628 45.9877 16.2626 45.1087C16.2625 44.2312 16.839 43.7281 17.852 43.7278C21.2595 43.7268 24.667 43.7275 28.0746 43.7275Z" fill="hsl(var(--neutral))"/>
<path d="M28.0225 18.2188C26.4812 18.2188 24.94 18.2215 23.3987 18.2178C22.4858 18.2155 21.858 17.632 21.8753 16.8146C21.8925 16.0085 22.4961 15.4498 23.3798 15.4485C26.4825 15.444 29.5852 15.4441 32.6877 15.4484C33.6122 15.4496 34.2205 16.022 34.2099 16.8567C34.1996 17.6684 33.6033 18.2147 32.7064 18.2175C31.145 18.2223 29.5839 18.2188 28.0225 18.2188Z" fill="hsl(var(--neutral))"/>
<path d="M23.0726 20.1886C23.1633 19.6643 23.6182 19.2813 24.1504 19.2813H24.446C25.0501 19.2813 25.5398 19.771 25.5398 20.375V41.3998C25.5398 42.0039 25.0501 42.4936 24.446 42.4936H20.5134C19.8348 42.4936 19.32 41.882 19.4356 41.2134L23.0726 20.1886Z" fill="hsl(var(--neutral))"/>
</svg>