<svg width="186" height="37" viewBox="0 0 186 37" fill="none" xmlns="http://www.w3.org/2000/svg">
<path d="M177.924 23.2007V20.1546H173.908C173.319 20.1636 172.748 20.0186 172.231 19.7375C171.75 19.4746 171.342 19.0939 171.061 18.6225C170.78 18.151 170.635 17.6162 170.635 17.0722C170.635 16.7821 170.672 16.492 170.744 16.211C170.817 15.939 170.916 15.667 171.043 15.4132L174.597 8.30566H178.876L174.815 16.2654C174.805 16.3198 174.787 16.3832 174.769 16.4376C174.751 16.4829 174.751 16.5373 174.751 16.5827C174.751 16.6552 174.778 16.7277 174.833 16.7821C174.914 16.8365 175.014 16.8637 175.114 16.8546H177.942V12.5575H181.795V16.8546H183.626V20.1546H181.795V23.2007H177.924Z" fill="#22BEA0"/>
<path d="M162.041 23.2006C161.442 23.2097 160.844 23.0646 160.318 22.7745C159.838 22.5116 159.439 22.1218 159.158 21.6504C158.886 21.179 158.741 20.6441 158.741 20.1001C158.741 19.6015 158.868 19.1029 159.103 18.6678C159.339 18.2145 159.684 17.8156 160.101 17.5073L164.461 14.4431C164.706 14.2709 164.914 14.0624 165.069 13.8085C165.205 13.5819 165.268 13.328 165.268 13.0651C165.277 12.8113 165.214 12.5665 165.078 12.3489C164.951 12.1495 164.769 11.9954 164.552 11.9047C164.307 11.7869 164.044 11.7325 163.772 11.7415H159.348V8.3147H164.135C165.096 8.3147 165.957 8.52321 166.7 8.9493C167.426 9.35726 168.033 9.94653 168.468 10.6537C168.903 11.3698 169.13 12.1948 169.121 13.0379C169.121 13.9173 168.94 14.697 168.577 15.3678C168.214 16.0387 167.634 16.637 166.818 17.1447L163.373 19.4021C163.328 19.4111 163.292 19.4383 163.265 19.4746C163.237 19.5109 163.219 19.5471 163.219 19.5925C163.21 19.6469 163.246 19.7103 163.292 19.7375C163.355 19.7738 163.419 19.7828 163.491 19.7828H169.366V23.2006H162.041Z" fill="#22BEA0"/>
<path d="M139.104 28.7488V8.26929H148.089C149.53 8.26929 150.836 8.57752 152.005 9.20306C153.147 9.81046 154.117 10.708 154.797 11.8049C155.486 12.92 155.84 14.2164 155.84 15.6941C155.84 17.1356 155.495 18.4229 154.797 19.5561C154.117 20.6712 153.156 21.5868 152.005 22.2033C150.836 22.8379 149.53 23.1552 148.089 23.1552H144.698V28.7397L139.104 28.7488ZM144.698 18.6586H147.481C147.962 18.6677 148.442 18.5408 148.859 18.305C149.267 18.0693 149.612 17.7158 149.838 17.2988C150.083 16.8636 150.201 16.3378 150.201 15.7304C150.201 15.1048 150.083 14.579 149.838 14.1348C149.612 13.7178 149.276 13.3733 148.859 13.1376C148.433 12.9109 147.962 12.7931 147.481 12.8021H144.698V18.6586Z" fill="#22BEA0"/>
<path d="M133.629 7.88867C132.577 7.88867 131.616 8.47794 131.136 9.42078C131.027 9.5477 130.927 9.69275 130.846 9.8378L126.032 18.1692L121.218 9.8378C121.136 9.69275 121.037 9.5477 120.928 9.42078C120.447 8.47794 119.486 7.88867 118.435 7.88867C116.894 7.88867 115.643 9.13974 115.643 10.6809V28.7489H121.227V18.7131L123.648 22.9106C124.092 23.663 124.862 24.1617 125.733 24.2614H125.76C125.787 24.2614 125.814 24.2704 125.842 24.2704H126.204C126.231 24.2704 126.259 24.2704 126.286 24.2614H126.313C127.183 24.1617 127.954 23.663 128.398 22.9106L130.819 18.7131V28.7489H136.403V10.6809C136.421 9.14881 135.188 7.9068 133.665 7.88867C133.647 7.88867 133.638 7.88867 133.629 7.88867Z" fill="#22BEA0"/>
<path d="M102.579 29.1297C100.956 29.1297 99.4783 28.8577 98.1275 28.3228C96.8311 27.8151 95.6525 27.0536 94.6643 26.0745C93.7034 25.1045 92.9328 23.9531 92.416 22.693C91.3372 20.0005 91.3372 17.0088 92.416 14.3163C93.4586 11.7325 95.5256 9.69275 98.1275 8.69552C99.4692 8.16064 100.956 7.88867 102.579 7.88867C104.22 7.88867 105.706 8.16064 107.039 8.69552C108.335 9.2032 109.514 9.96472 110.502 10.9348C111.481 11.8957 112.243 13.0471 112.75 14.3163C113.285 15.6489 113.548 17.0723 113.539 18.5137C113.548 19.9461 113.285 21.3694 112.75 22.693C112.234 23.9622 111.472 25.1136 110.502 26.0745C109.505 27.0446 108.335 27.8151 107.039 28.3228C105.706 28.8577 104.22 29.1297 102.579 29.1297ZM102.579 24.5061C103.331 24.5152 104.075 24.3611 104.755 24.0529C105.407 23.7537 105.987 23.3095 106.45 22.7655C106.93 22.2035 107.293 21.5507 107.529 20.8527C107.773 20.1002 107.9 19.3115 107.891 18.5137C107.9 17.7159 107.773 16.9181 107.529 16.1566C107.302 15.4495 106.93 14.8058 106.45 14.2437C105.978 13.7089 105.407 13.2737 104.755 12.9745C103.367 12.3671 101.799 12.3671 100.412 12.9745C99.7593 13.2646 99.1791 13.6998 98.7167 14.2437C98.2362 14.8058 97.8736 15.4586 97.6379 16.1566C97.3841 16.9181 97.2481 17.7159 97.2572 18.5137C97.2481 19.3115 97.375 20.1002 97.6379 20.8527C97.8827 21.5507 98.2453 22.1944 98.7167 22.7655C99.1791 23.3185 99.7593 23.7537 100.412 24.0529C101.092 24.3611 101.835 24.5152 102.579 24.5061Z" fill="#22BEA0"/>
<path d="M86.8677 28.7488C85.1089 28.7307 83.5406 28.4678 82.1535 27.9601C80.7665 27.4524 79.5879 26.7453 78.6179 25.8206C77.6478 24.914 76.8863 23.808 76.3786 22.5841C75.8528 21.2877 75.5809 19.9006 75.599 18.5045C75.599 17.0268 75.8528 15.6579 76.3786 14.4249C76.8863 13.2011 77.6478 12.0951 78.6179 11.1885C79.6423 10.2456 80.8481 9.51132 82.1535 9.03991C83.5406 8.52316 85.1089 8.26025 86.8677 8.26025H89.9954V12.7931H87.0399C86.1243 12.7931 85.3084 12.9382 84.6013 13.2283C83.9213 13.5002 83.3049 13.9082 82.8062 14.4431C82.3167 14.9689 81.9359 15.5854 81.6912 16.2562C81.1835 17.7067 81.1835 19.2842 81.6912 20.7347C81.9359 21.4056 82.3167 22.022 82.8062 22.5478C83.3139 23.0737 83.9213 23.4907 84.6013 23.7626C85.3809 24.0618 86.2059 24.2159 87.0399 24.1978H89.9954V28.7307H86.8677V28.7488Z" fill="#22BEA0"/>
<path d="M64.3305 13.5909C64.4937 13.337 64.7294 13.1285 65.0014 13.0016C65.3005 12.8566 65.6269 12.7931 65.9533 12.7931H73.7317V8.26024H64.8382C63.7684 8.25117 62.7077 8.51408 61.7649 9.02176C60.8583 9.50224 60.0877 10.2184 59.5438 11.0978C58.9999 11.9772 58.7279 12.9835 58.7279 14.1076C58.7279 14.8873 58.5828 21.8588 58.5828 22.7382C58.5647 23.8261 58.8548 24.8958 59.4169 25.8205C59.9699 26.7271 60.7495 27.4614 61.6833 27.9601C62.6533 28.4859 63.7412 28.7488 64.8472 28.7397H73.7317V24.2068H66.0077C65.6632 24.2159 65.3187 24.1343 65.0104 23.9893C64.7294 23.8533 64.4846 23.6357 64.3214 23.3728C64.1583 23.0918 64.0676 22.7745 64.0767 22.4481V20.6621H72.7072V16.1565H64.0767V14.4975C64.0676 14.1802 64.1583 13.8629 64.3305 13.5909Z" fill="#22BEA0"/>
<path d="M40.7323 28.7489V24.2161H49.4535C49.7889 24.2251 50.1153 24.1435 50.4054 23.9803C50.6683 23.8262 50.8859 23.5996 51.031 23.3367C51.1851 23.0738 51.2667 22.7655 51.2667 22.4573C51.2667 22.14 51.1851 21.8227 51.031 21.5507C50.8859 21.2878 50.6683 21.0612 50.4054 20.9071C50.1153 20.7439 49.7889 20.6623 49.4535 20.6714H46.5615C45.3286 20.6714 44.2226 20.4266 43.2254 19.937C42.2553 19.4656 41.4303 18.7404 40.8411 17.8428C40.2427 16.9363 39.9526 15.8393 39.9526 14.552C39.9526 13.2828 40.2337 12.1858 40.8048 11.243C41.3578 10.3183 42.1465 9.55677 43.0894 9.04909C44.0685 8.51421 45.1654 8.24224 46.2805 8.26037H55.4641V12.7932H46.9786C46.6885 12.7932 46.3984 12.8658 46.1445 13.0108C45.655 13.2919 45.3649 13.8086 45.3649 14.3707C45.3649 14.6517 45.4374 14.9327 45.5734 15.1775C45.8544 15.6852 46.3984 16.0025 46.9786 15.9844H50.0519C51.4208 15.9844 52.5993 16.2382 53.5875 16.7459C54.5485 17.2173 55.3462 17.9516 55.8992 18.8673C56.4432 19.7738 56.7152 20.8436 56.7152 22.0675C56.7152 23.4727 56.4251 24.6784 55.8539 25.6847C55.319 26.6547 54.5213 27.4435 53.5422 27.9693C52.554 28.4951 51.457 28.758 50.342 28.7489H40.7323Z" fill="#22BEA0"/>
<path d="M14.3963 24.2433L5.32153 19.0124C3.82568 18.1511 2.82845 16.764 2.41143 15.2229C1.99441 13.6817 2.17572 11.9773 3.03697 10.4906C3.94354 8.9222 5.0133 8.36919 6.11931 7.75272L6.12838 7.74365C4.57814 8.75901 4.56907 11.379 6.29156 12.3672L16.9166 18.5047L16.835 22.8653C16.8259 24.1073 15.4751 24.8688 14.3963 24.2433Z" fill="#22BEA0"/>
<path d="M9.51881 12.9745C9.03833 13.2465 9.03833 13.9445 9.51881 14.2165L6.30954 12.358C4.58706 11.3608 4.59612 8.74986 6.14636 7.7345L14.4415 2.98406C15.5113 2.36759 16.853 3.13818 16.853 4.37111L16.8802 7.87048C16.8802 8.44163 16.581 8.96744 16.0915 9.24848L9.51881 12.9745Z" fill="white"/>
<path d="M12.2748 32.7649L2.90991 27.3527C2.48382 27.1079 2.22998 26.6546 2.22998 26.1742V22.6023C2.22998 21.3421 3.58984 20.5534 4.68679 21.188L14.0608 26.6003C14.4868 26.845 14.7407 27.2983 14.7407 27.7788V31.3507C14.7316 32.6018 13.3718 33.3905 12.2748 32.7649Z" fill="#22BEA0"/>
<path d="M19.4548 12.748L28.5296 17.988C30.0255 18.8492 31.0227 20.2363 31.4397 21.7774C31.8568 23.3186 31.6754 25.023 30.8142 26.5097C29.9076 28.0781 28.8379 28.6311 27.7318 29.2476L27.7228 29.2566C29.273 28.2413 29.2821 25.6213 27.5596 24.6331L16.9346 18.4956L17.0162 14.135C17.0252 12.893 18.376 12.1315 19.4548 12.748Z" fill="#22BEA0"/>
<path d="M24.3325 24.0257C24.813 23.7537 24.813 23.0557 24.3325 22.7837L27.5418 24.6422C29.2643 25.6394 29.2552 28.2503 27.7049 29.2657L19.4279 34.0161C18.3582 34.6326 17.0165 33.862 17.0165 32.6291L16.9893 29.1297C16.9893 28.5586 17.2884 28.0327 17.778 27.7517L24.3325 24.0257Z" fill="white"/>
<path d="M21.5762 4.23501L30.9411 9.64725C31.3672 9.89203 31.6211 10.3453 31.6211 10.8258V14.3977C31.6211 15.6578 30.2612 16.4465 29.1642 15.8119L19.7903 10.3997C19.3642 10.1549 19.1104 9.70164 19.1104 9.22116V5.64927C19.1194 4.38913 20.4793 3.60948 21.5762 4.23501Z" fill="#22BEA0"/>
</svg>
