<svg viewBox="0 0 28 28" fill="none" xmlns="http://www.w3.org/2000/svg">
<path d="M5.83333 20.825C6.88333 19.7944 8.10347 18.9826 9.49375 18.3896C10.884 17.7965 12.3861 17.5 14 17.5C15.6139 17.5 17.116 17.7965 18.5062 18.3896C19.8965 18.9826 21.1167 19.7944 22.1667 20.825V5.83333H5.83333V20.825ZM14 15.1667C15.1278 15.1667 16.0903 14.7681 16.8875 13.9708C17.6847 13.1736 18.0833 12.2111 18.0833 11.0833C18.0833 9.95556 17.6847 8.99306 16.8875 8.19583C16.0903 7.39861 15.1278 7 14 7C12.8722 7 11.9097 7.39861 11.1125 8.19583C10.3153 8.99306 9.91667 9.95556 9.91667 11.0833C9.91667 12.2111 10.3153 13.1736 11.1125 13.9708C11.9097 14.7681 12.8722 15.1667 14 15.1667ZM5.83333 24.5C5.19167 24.5 4.64236 24.2715 4.18542 23.8146C3.72847 23.3576 3.5 22.8083 3.5 22.1667V5.83333C3.5 5.19167 3.72847 4.64236 4.18542 4.18542C4.64236 3.72847 5.19167 3.5 5.83333 3.5H22.1667C22.8083 3.5 23.3576 3.72847 23.8146 4.18542C24.2715 4.64236 24.5 5.19167 24.5 5.83333V22.1667C24.5 22.8083 24.2715 23.3576 23.8146 23.8146C23.3576 24.2715 22.8083 24.5 22.1667 24.5H5.83333ZM8.16667 22.1667H19.8333V21.875C19.0167 21.1944 18.1125 20.684 17.1208 20.3438C16.1292 20.0035 15.0889 19.8333 14 19.8333C12.9111 19.8333 11.8708 20.0035 10.8792 20.3438C9.8875 20.684 8.98333 21.1944 8.16667 21.875V22.1667ZM14 12.8333C13.5139 12.8333 13.1007 12.6632 12.7604 12.3229C12.4201 11.9826 12.25 11.5694 12.25 11.0833C12.25 10.5972 12.4201 10.184 12.7604 9.84375C13.1007 9.50347 13.5139 9.33333 14 9.33333C14.4861 9.33333 14.8993 9.50347 15.2396 9.84375C15.5799 10.184 15.75 10.5972 15.75 11.0833C15.75 11.5694 15.5799 11.9826 15.2396 12.3229C14.8993 12.6632 14.4861 12.8333 14 12.8333Z" fill="currentColor"/>
</svg>
