<svg
    width="97"
    height="97"
    viewBox="0 0 97 97"
    fill="none"
    xmlns="http://www.w3.org/2000/svg"
>
    <mask
        id="mask0_302_4514"
        maskUnits="userSpaceOnUse"
        x="0"
        y="0"
        width="97"
        height="97"
    >
        <rect
            x="0.694824"
            y="0.454834"
            width="96"
            height="96"
            fill="#FFFFFF"
        />
    </mask>
    <g mask="url(#mask0_302_4514)">
        <path
            d="M72.0951 80.2552L54.3951 62.5552L62.7951 54.1552L80.4951 71.8552C81.6284 72.9886 82.1951 74.3886 82.1951 76.0552C82.1951 77.7219 81.6284 79.1219 80.4951 80.2552C79.3618 81.3886 77.9618 81.9552 76.2951 81.9552C74.6284 81.9552 73.2284 81.3886 72.0951 80.2552ZM16.8951 80.2552C15.7618 79.1219 15.1951 77.7219 15.1951 76.0552C15.1951 74.3886 15.7618 72.9886 16.8951 71.8552L40.2951 48.4552L33.4951 41.6552C32.7618 42.3886 31.8284 42.7552 30.6951 42.7552C29.5618 42.7552 28.6284 42.3886 27.8951 41.6552L25.5951 39.3552V48.3552C25.5951 49.2886 25.1951 49.9219 24.3951 50.2552C23.5951 50.5886 22.8618 50.4219 22.1951 49.7552L11.2951 38.8552C10.6284 38.1886 10.4618 37.4552 10.7951 36.6552C11.1284 35.8552 11.7618 35.4552 12.6951 35.4552H21.6951L19.4951 33.2552C18.6951 32.4552 18.2951 31.5219 18.2951 30.4552C18.2951 29.3886 18.6951 28.4552 19.4951 27.6552L30.8951 16.2552C32.2284 14.9219 33.6618 13.9552 35.1951 13.3552C36.7284 12.7552 38.2951 12.4552 39.8951 12.4552C41.2284 12.4552 42.4784 12.6552 43.6451 13.0552C44.8118 13.4552 45.9618 14.0552 47.0951 14.8552C47.6284 15.1886 47.9118 15.6552 47.9451 16.2552C47.9784 16.8552 47.7618 17.3886 47.2951 17.8552L39.6951 25.4552L41.8951 27.6552C42.6284 28.3886 42.9951 29.3219 42.9951 30.4552C42.9951 31.5886 42.6284 32.5219 41.8951 33.2552L48.6951 40.0552L57.6951 31.0552C57.4284 30.3219 57.2118 29.5552 57.0451 28.7552C56.8784 27.9552 56.7951 27.1552 56.7951 26.3552C56.7951 22.4219 58.1451 19.1052 60.8451 16.4052C63.5451 13.7052 66.8618 12.3552 70.7951 12.3552C71.3284 12.3552 71.8284 12.3719 72.2951 12.4052C72.7618 12.4386 73.2284 12.5219 73.6951 12.6552C74.2951 12.8552 74.6784 13.2719 74.8451 13.9052C75.0118 14.5386 74.8618 15.0886 74.3951 15.5552L67.8951 22.0552C67.4951 22.4552 67.2951 22.9219 67.2951 23.4552C67.2951 23.9886 67.4951 24.4552 67.8951 24.8552L72.2951 29.2552C72.6951 29.6552 73.1618 29.8552 73.6951 29.8552C74.2284 29.8552 74.6951 29.6552 75.0951 29.2552L81.5951 22.7552C82.0618 22.2886 82.6118 22.1219 83.2451 22.2552C83.8784 22.3886 84.2951 22.7886 84.4951 23.4552C84.6284 23.9219 84.7118 24.3886 84.7451 24.8552C84.7784 25.3219 84.7951 25.8219 84.7951 26.3552C84.7951 30.2886 83.4451 33.6052 80.7451 36.3052C78.0451 39.0052 74.7284 40.3552 70.7951 40.3552C69.9951 40.3552 69.1951 40.2886 68.3951 40.1552C67.5951 40.0219 66.8284 39.7886 66.0951 39.4552L25.2951 80.2552C24.1618 81.3886 22.7618 81.9552 21.0951 81.9552C19.4284 81.9552 18.0284 81.3886 16.8951 80.2552Z"
            fill="hsl(var(--neutral))"
        />
    </g>
</svg>