<svg width="16" height="16" viewBox="0 0 16 16" fill="none" xmlns="http://www.w3.org/2000/svg">
<mask id="mask0_237_810" style="mask-type:alpha" maskUnits="userSpaceOnUse" x="0" y="0" width="16" height="16">
<rect width="16" height="16" fill="#FFFFFF"/>
</mask>
<g mask="url(#mask0_237_810)">
<path d="M7.06671 9.19992L5.63337 7.76659C5.51115 7.64436 5.3556 7.58325 5.16671 7.58325C4.97782 7.58325 4.82226 7.64436 4.70004 7.76659C4.57782 7.88881 4.51671 8.04436 4.51671 8.23325C4.51671 8.42214 4.57782 8.5777 4.70004 8.69992L6.60004 10.5999C6.73337 10.7333 6.88893 10.7999 7.06671 10.7999C7.24448 10.7999 7.40004 10.7333 7.53337 10.5999L11.3 6.83325C11.4223 6.71103 11.4834 6.55547 11.4834 6.36659C11.4834 6.1777 11.4223 6.02214 11.3 5.89992C11.1778 5.7777 11.0223 5.71659 10.8334 5.71659C10.6445 5.71659 10.4889 5.7777 10.3667 5.89992L7.06671 9.19992ZM8.00004 14.6666C7.07782 14.6666 6.21115 14.4916 5.40004 14.1416C4.58893 13.7916 3.88337 13.3166 3.28337 12.7166C2.68337 12.1166 2.20837 11.411 1.85837 10.5999C1.50837 9.78881 1.33337 8.92214 1.33337 7.99992C1.33337 7.0777 1.50837 6.21103 1.85837 5.39992C2.20837 4.58881 2.68337 3.88325 3.28337 3.28325C3.88337 2.68325 4.58893 2.20825 5.40004 1.85825C6.21115 1.50825 7.07782 1.33325 8.00004 1.33325C8.92226 1.33325 9.78893 1.50825 10.6 1.85825C11.4112 2.20825 12.1167 2.68325 12.7167 3.28325C13.3167 3.88325 13.7917 4.58881 14.1417 5.39992C14.4917 6.21103 14.6667 7.0777 14.6667 7.99992C14.6667 8.92214 14.4917 9.78881 14.1417 10.5999C13.7917 11.411 13.3167 12.1166 12.7167 12.7166C12.1167 13.3166 11.4112 13.7916 10.6 14.1416C9.78893 14.4916 8.92226 14.6666 8.00004 14.6666ZM8.00004 13.3333C9.48893 13.3333 10.75 12.8166 11.7834 11.7833C12.8167 10.7499 13.3334 9.48881 13.3334 7.99992C13.3334 6.51103 12.8167 5.24992 11.7834 4.21659C10.75 3.18325 9.48893 2.66659 8.00004 2.66659C6.51115 2.66659 5.25004 3.18325 4.21671 4.21659C3.18337 5.24992 2.66671 6.51103 2.66671 7.99992C2.66671 9.48881 3.18337 10.7499 4.21671 11.7833C5.25004 12.8166 6.51115 13.3333 8.00004 13.3333Z" fill="currentColor"/>
</g>
</svg>