<svg width="24" height="24" viewBox="0 0 24 24" fill="none" xmlns="http://www.w3.org/2000/svg">
<mask id="mask0_292_8820" style="mask-type:alpha" maskUnits="userSpaceOnUse" x="0" y="0" width="24" height="24">
<rect x="24" y="24" width="24" height="24" transform="rotate(-180 24 24)" fill="#D9D9D9"/>
</mask>
<g mask="url(#mask0_292_8820)">
<path d="M12.0002 9.04997C12.1335 9.04997 12.2585 9.07081 12.3752 9.11247C12.4919 9.15414 12.6002 9.22498 12.7002 9.32498L17.3002 13.925C17.4835 14.1083 17.5752 14.3416 17.5752 14.625C17.5752 14.9083 17.4835 15.1416 17.3002 15.325C17.1169 15.5083 16.8835 15.6 16.6002 15.6C16.3169 15.6 16.0835 15.5083 15.9002 15.325L12.0002 11.425L8.10019 15.325C7.91686 15.5083 7.68353 15.6 7.4002 15.6C7.11686 15.6 6.88353 15.5083 6.7002 15.325C6.51686 15.1416 6.42519 14.9083 6.42519 14.625C6.42519 14.3416 6.51686 14.1083 6.7002 13.925L11.3002 9.32497C11.4002 9.22498 11.5085 9.15414 11.6252 9.11247C11.7419 9.07081 11.8669 9.04997 12.0002 9.04997Z" fill="hsl(var(--neutral))"/>
</g>
</svg>
