<svg width="25" height="25" viewBox="0 0 25 25" fill="none" xmlns="http://www.w3.org/2000/svg">
<path d="M11.5 13.35L10.6 14.225C10.4167 14.4083 10.1875 14.5 9.9125 14.5C9.6375 14.5 9.4 14.4 9.2 14.2C9.01667 14.0167 8.925 13.7833 8.925 13.5C8.925 13.2167 9.01667 12.9833 9.2 12.8L11.8 10.2C12 10 12.2333 9.9 12.5 9.9C12.7667 9.9 13 10 13.2 10.2L15.8 12.8C15.9833 12.9833 16.0792 13.2125 16.0875 13.4875C16.0958 13.7625 16 14 15.8 14.2C15.6167 14.3833 15.3875 14.4792 15.1125 14.4875C14.8375 14.4958 14.6 14.4083 14.4 14.225L13.5 13.35V18.5H19C19.7 18.5 20.2917 18.2583 20.775 17.775C21.2583 17.2917 21.5 16.7 21.5 16C21.5 15.3 21.2583 14.7083 20.775 14.225C20.2917 13.7417 19.7 13.5 19 13.5H17.5V11.5C17.5 10.1167 17.0125 8.9375 16.0375 7.9625C15.0625 6.9875 13.8833 6.5 12.5 6.5C11.1167 6.5 9.9375 6.9875 8.9625 7.9625C7.9875 8.9375 7.5 10.1167 7.5 11.5H7C6.03333 11.5 5.20833 11.8417 4.525 12.525C3.84167 13.2083 3.5 14.0333 3.5 15C3.5 15.9667 3.84167 16.7917 4.525 17.475C5.20833 18.1583 6.03333 18.5 7 18.5H8.5C8.78333 18.5 9.02083 18.5958 9.2125 18.7875C9.40417 18.9792 9.5 19.2167 9.5 19.5C9.5 19.7833 9.40417 20.0208 9.2125 20.2125C9.02083 20.4042 8.78333 20.5 8.5 20.5H7C5.48333 20.5 4.1875 19.975 3.1125 18.925C2.0375 17.875 1.5 16.5917 1.5 15.075C1.5 13.775 1.89167 12.6167 2.675 11.6C3.45833 10.5833 4.48333 9.93333 5.75 9.65C6.16667 8.11667 7 6.875 8.25 5.925C9.5 4.975 10.9167 4.5 12.5 4.5C14.45 4.5 16.1042 5.17917 17.4625 6.5375C18.8208 7.89583 19.5 9.55 19.5 11.5C20.65 11.6333 21.6042 12.1292 22.3625 12.9875C23.1208 13.8458 23.5 14.85 23.5 16C23.5 17.25 23.0625 18.3125 22.1875 19.1875C21.3125 20.0625 20.25 20.5 19 20.5H13.5C12.95 20.5 12.4792 20.3042 12.0875 19.9125C11.6958 19.5208 11.5 19.05 11.5 18.5V13.35Z" fill="white"/>
</svg>
