<svg width="17" height="16" viewBox="0 0 17 16" fill="none" xmlns="http://www.w3.org/2000/svg">
<path d="M3.16634 13.3333C2.79967 13.3333 2.48579 13.2027 2.22467 12.9416C1.96356 12.6805 1.83301 12.3666 1.83301 12V3.99996C1.83301 3.63329 1.96356 3.3194 2.22467 3.05829C2.48579 2.79718 2.79967 2.66663 3.16634 2.66663H13.833C14.1997 2.66663 14.5136 2.79718 14.7747 3.05829C15.0358 3.3194 15.1663 3.63329 15.1663 3.99996V12C15.1663 12.3666 15.0358 12.6805 14.7747 12.9416C14.5136 13.2027 14.1997 13.3333 13.833 13.3333H3.16634ZM13.833 5.33329L8.84967 8.44996C8.79412 8.48329 8.73579 8.50829 8.67467 8.52496C8.61356 8.54163 8.55523 8.54996 8.49967 8.54996C8.44412 8.54996 8.38579 8.54163 8.32467 8.52496C8.26356 8.50829 8.20523 8.48329 8.14967 8.44996L3.16634 5.33329V12H13.833V5.33329ZM8.49967 7.33329L13.833 3.99996H3.16634L8.49967 7.33329ZM3.16634 5.49996V4.51663V4.53329V4.52496V5.49996Z" fill="hsl(var(--neutral))"/>
</svg>