<svg width="36" height="36" viewBox="0 0 36 36" fill="none" xmlns="http://www.w3.org/2000/svg">
<path d="M13.35 16.425L14.1375 17.25C14.3375 17.45 14.5938 17.55 14.9062 17.55C15.2187 17.55 15.4875 17.4375 15.7125 17.2125C15.9125 17.0125 16.0125 16.7563 16.0125 16.4438C16.0125 16.1313 15.9125 15.8625 15.7125 15.6375L14.925 14.85L15.75 13.9875C15.95 13.7875 16.0438 13.5312 16.0312 13.2188C16.0187 12.9063 15.9125 12.6375 15.7125 12.4125C15.4875 12.2125 15.2187 12.1125 14.9062 12.1125C14.5938 12.1125 14.3375 12.2125 14.1375 12.4125L13.35 13.2L12.45 12.375C12.25 12.175 11.9937 12.0812 11.6812 12.0938C11.3687 12.1063 11.1 12.225 10.875 12.45C10.675 12.65 10.5687 12.9063 10.5562 13.2188C10.5437 13.5312 10.65 13.7875 10.875 13.9875L11.7 14.85L10.875 15.675C10.675 15.875 10.575 16.1313 10.575 16.4438C10.575 16.7563 10.6875 17.025 10.9125 17.25C11.1125 17.45 11.3687 17.5563 11.6812 17.5688C11.9937 17.5813 12.25 17.475 12.45 17.25L13.35 16.425ZM22.65 16.425L23.5125 17.2875C23.7125 17.4875 23.9688 17.5813 24.2812 17.5688C24.5937 17.5563 24.8625 17.4375 25.0875 17.2125C25.2875 17.0125 25.3875 16.7563 25.3875 16.4438C25.3875 16.1313 25.2875 15.8625 25.0875 15.6375L24.3 14.85L25.125 13.9875C25.325 13.7875 25.4188 13.5312 25.4062 13.2188C25.3937 12.9063 25.275 12.6375 25.05 12.4125C24.85 12.2125 24.5937 12.1063 24.2812 12.0938C23.9688 12.0812 23.7125 12.1875 23.5125 12.4125L22.65 13.2L21.825 12.4125C21.625 12.2125 21.3688 12.1125 21.0563 12.1125C20.7438 12.1125 20.475 12.225 20.25 12.45C20.05 12.65 19.9438 12.9063 19.9313 13.2188C19.9188 13.5312 20.025 13.7875 20.25 13.9875L21.075 14.85L20.25 15.675C20.05 15.875 19.95 16.1313 19.95 16.4438C19.95 16.7563 20.0625 17.0125 20.2875 17.2125C20.4875 17.4375 20.7438 17.55 21.0563 17.55C21.3688 17.55 21.6375 17.4375 21.8625 17.2125L22.65 16.425ZM18 33C15.925 33 13.975 32.6062 12.15 31.8187C10.325 31.0312 8.7375 29.9625 7.3875 28.6125C6.0375 27.2625 4.96875 25.675 4.18125 23.85C3.39375 22.025 3 20.075 3 18C3 15.925 3.39375 13.9813 4.18125 12.1688C4.96875 10.3563 6.0375 8.76875 7.3875 7.40625C8.7375 6.04375 10.325 4.96875 12.15 4.18125C13.975 3.39375 15.925 3 18 3C20.075 3 22.0187 3.39375 23.8312 4.18125C25.6437 4.96875 27.2313 6.04375 28.5938 7.40625C29.9562 8.76875 31.0312 10.3563 31.8187 12.1688C32.6062 13.9813 33 15.925 33 18C33 20.075 32.6062 22.025 31.8187 23.85C31.0312 25.675 29.9562 27.2625 28.5938 28.6125C27.2313 29.9625 25.6437 31.0312 23.8312 31.8187C22.0187 32.6062 20.075 33 18 33ZM18 30C21.325 30 24.1563 28.8375 26.4938 26.5125C28.8313 24.1875 30 21.35 30 18C30 14.675 28.8313 11.8438 26.4938 9.50625C24.1563 7.16875 21.325 6 18 6C14.65 6 11.8125 7.16875 9.4875 9.50625C7.1625 11.8438 6 14.675 6 18C6 21.35 7.1625 24.1875 9.4875 26.5125C11.8125 28.8375 14.65 30 18 30ZM18 20.25C16.575 20.25 15.2375 20.6 13.9875 21.3C12.7375 22 11.7375 22.9625 10.9875 24.1875C10.8375 24.4875 10.85 24.7813 11.025 25.0688C11.2 25.3563 11.4625 25.5 11.8125 25.5H24.15C24.5 25.5 24.7625 25.3563 24.9375 25.0688C25.1125 24.7813 25.125 24.4875 24.975 24.1875C24.225 22.9625 23.2313 22 21.9938 21.3C20.7563 20.6 19.425 20.25 18 20.25Z" fill="currentColor"/>
</svg>
