<svg width="18" height="18" viewBox="0 0 18 18" fill="none" xmlns="http://www.w3.org/2000/svg">
<mask id="mask0_260_4617" style="mask-type:alpha" maskUnits="userSpaceOnUse" x="0" y="0" width="18" height="18">
<rect width="18" height="18" fill="#D9D9D9"/>
</mask>
<g mask="url(#mask0_260_4617)">
<path d="M9 10.5C8.7875 10.5 8.60937 10.4281 8.46562 10.2844C8.32187 10.1406 8.25 9.9625 8.25 9.75V4.5C8.25 4.2875 8.32187 4.10937 8.46562 3.96562C8.60937 3.82187 8.7875 3.75 9 3.75C9.2125 3.75 9.39062 3.82187 9.53437 3.96562C9.67812 4.10937 9.75 4.2875 9.75 4.5V9.75C9.75 9.9625 9.67812 10.1406 9.53437 10.2844C9.39062 10.4281 9.2125 10.5 9 10.5ZM9 14.25C8.7875 14.25 8.60937 14.1781 8.46562 14.0344C8.32187 13.8906 8.25 13.7125 8.25 13.5C8.25 13.2875 8.32187 13.1094 8.46562 12.9656C8.60937 12.8219 8.7875 12.75 9 12.75C9.2125 12.75 9.39062 12.8219 9.53437 12.9656C9.67812 13.1094 9.75 13.2875 9.75 13.5C9.75 13.7125 9.67812 13.8906 9.53437 14.0344C9.39062 14.1781 9.2125 14.25 9 14.25Z" fill="currentColor"/>
</g>
</svg>
