<svg viewBox="0 0 12 12" fill="none" xmlns="http://www.w3.org/2000/svg">
<path d="M10.3709 1.62878L10.3708 1.62869L4.91677 6.51714C4.76055 6.67334 4.76055 6.92661 4.91677 7.08282L4.82838 7.1712C4.82838 7.1712 4.82838 7.17121 4.82838 7.17121C5.03341 7.37624 5.36582 7.37624 5.57084 7.1712L9.47461 3.26744V4.39998C9.47461 4.68993 9.7097 4.92498 9.99961 4.92498C10.2895 4.92498 10.5246 4.68993 10.5246 4.39998V1.99998L10.5246 1.99758L10.5246 1.99683C10.5242 1.92695 10.51 1.86013 10.4848 1.79913L10.4848 1.79907C10.4591 1.73695 10.421 1.67892 10.3709 1.62878ZM7.59961 2.52498H8.73215L10.2005 1.51482C10.1384 1.4891 10.0704 1.47498 9.99953 1.47498H7.59961C7.30966 1.47498 7.07461 1.71003 7.07461 1.99998C7.07461 2.28992 7.30966 2.52498 7.59961 2.52498ZM2.39961 1.47498C1.88875 1.47498 1.47461 1.88912 1.47461 2.39998V9.59998C1.47461 10.1109 1.88875 10.525 2.39961 10.525H9.59961C10.1105 10.525 10.5246 10.1109 10.5246 9.59998V6.79998C10.5246 6.51002 10.2895 6.27498 9.99961 6.27498C9.7097 6.27498 9.47461 6.51002 9.47461 6.79998V9.47498H2.52461V2.52498H5.19961C5.48956 2.52498 5.72461 2.28992 5.72461 1.99998C5.72461 1.71003 5.48956 1.47498 5.19961 1.47498H2.39961Z" fill="currentColor" stroke="currentColor" stroke-width="0.25"/>
</svg>