<svg width="17" height="16" viewBox="0 0 17 16" fill="none" xmlns="http://www.w3.org/2000/svg">
<path d="M5.83366 13.3334H11.167V11.3334C11.167 10.6 10.9059 9.97226 10.3837 9.45004C9.86144 8.92782 9.23366 8.66671 8.50033 8.66671C7.76699 8.66671 7.13921 8.92782 6.61699 9.45004C6.09477 9.97226 5.83366 10.6 5.83366 11.3334V13.3334ZM8.50033 7.33337C9.23366 7.33337 9.86144 7.07226 10.3837 6.55004C10.9059 6.02782 11.167 5.40004 11.167 4.66671V2.66671H5.83366V4.66671C5.83366 5.40004 6.09477 6.02782 6.61699 6.55004C7.13921 7.07226 7.76699 7.33337 8.50033 7.33337ZM3.83366 14.6667C3.64477 14.6667 3.48644 14.6028 3.35866 14.475C3.23088 14.3473 3.16699 14.1889 3.16699 14C3.16699 13.8112 3.23088 13.6528 3.35866 13.525C3.48644 13.3973 3.64477 13.3334 3.83366 13.3334H4.50033V11.3334C4.50033 10.6556 4.65866 10.0195 4.97533 9.42504C5.29199 8.8306 5.73366 8.3556 6.30033 8.00004C5.73366 7.64448 5.29199 7.16949 4.97533 6.57504C4.65866 5.9806 4.50033 5.34448 4.50033 4.66671V2.66671H3.83366C3.64477 2.66671 3.48644 2.60282 3.35866 2.47504C3.23088 2.34726 3.16699 2.18893 3.16699 2.00004C3.16699 1.81115 3.23088 1.65282 3.35866 1.52504C3.48644 1.39726 3.64477 1.33337 3.83366 1.33337H13.167C13.3559 1.33337 13.5142 1.39726 13.642 1.52504C13.7698 1.65282 13.8337 1.81115 13.8337 2.00004C13.8337 2.18893 13.7698 2.34726 13.642 2.47504C13.5142 2.60282 13.3559 2.66671 13.167 2.66671H12.5003V4.66671C12.5003 5.34448 12.342 5.9806 12.0253 6.57504C11.7087 7.16949 11.267 7.64448 10.7003 8.00004C11.267 8.3556 11.7087 8.8306 12.0253 9.42504C12.342 10.0195 12.5003 10.6556 12.5003 11.3334V13.3334H13.167C13.3559 13.3334 13.5142 13.3973 13.642 13.525C13.7698 13.6528 13.8337 13.8112 13.8337 14C13.8337 14.1889 13.7698 14.3473 13.642 14.475C13.5142 14.6028 13.3559 14.6667 13.167 14.6667H3.83366Z" fill="hsl(var(--neutral))"/>
</svg>