<svg viewBox="0 0 18 19" fill="none" xmlns="http://www.w3.org/2000/svg">
<path d="M9 13.25C9.2125 13.25 9.39063 13.1781 9.53438 13.0343C9.67813 12.8906 9.75 12.7125 9.75 12.5V9.49997C9.75 9.28747 9.67813 9.10934 9.53438 8.96559C9.39063 8.82184 9.2125 8.74997 9 8.74997C8.7875 8.74997 8.60938 8.82184 8.46563 8.96559C8.32188 9.10934 8.25 9.28747 8.25 9.49997V12.5C8.25 12.7125 8.32188 12.8906 8.46563 13.0343C8.60938 13.1781 8.7875 13.25 9 13.25ZM9 7.24997C9.2125 7.24997 9.39063 7.17809 9.53438 7.03434C9.67813 6.89059 9.75 6.71247 9.75 6.49997C9.75 6.28747 9.67813 6.10934 9.53438 5.96559C9.39063 5.82184 9.2125 5.74997 9 5.74997C8.7875 5.74997 8.60938 5.82184 8.46563 5.96559C8.32188 6.10934 8.25 6.28747 8.25 6.49997C8.25 6.71247 8.32188 6.89059 8.46563 7.03434C8.60938 7.17809 8.7875 7.24997 9 7.24997ZM9 17C7.9625 17 6.9875 16.8031 6.075 16.4093C5.1625 16.0156 4.36875 15.4812 3.69375 14.8062C3.01875 14.1312 2.48438 13.3375 2.09063 12.425C1.69687 11.5125 1.5 10.5375 1.5 9.49997C1.5 8.46247 1.69687 7.48747 2.09063 6.57497C2.48438 5.66247 3.01875 4.86872 3.69375 4.19372C4.36875 3.51872 5.1625 2.98434 6.075 2.59059C6.9875 2.19684 7.9625 1.99997 9 1.99997C10.0375 1.99997 11.0125 2.19684 11.925 2.59059C12.8375 2.98434 13.6313 3.51872 14.3063 4.19372C14.9813 4.86872 15.5156 5.66247 15.9094 6.57497C16.3031 7.48747 16.5 8.46247 16.5 9.49997C16.5 10.5375 16.3031 11.5125 15.9094 12.425C15.5156 13.3375 14.9813 14.1312 14.3063 14.8062C13.6313 15.4812 12.8375 16.0156 11.925 16.4093C11.0125 16.8031 10.0375 17 9 17ZM9 15.5C10.675 15.5 12.0938 14.9187 13.2563 13.7562C14.4187 12.5937 15 11.175 15 9.49997C15 7.82497 14.4187 6.40622 13.2563 5.24372C12.0938 4.08122 10.675 3.49997 9 3.49997C7.325 3.49997 5.90625 4.08122 4.74375 5.24372C3.58125 6.40622 3 7.82497 3 9.49997C3 11.175 3.58125 12.5937 4.74375 13.7562C5.90625 14.9187 7.325 15.5 9 15.5Z" fill="currentColor"/>
</svg>