<svg viewBox="0 0 25 25" fill="none" xmlns="http://www.w3.org/2000/svg">
<path d="M10.5 12.5C9.4 12.5 8.45833 12.1083 7.675 11.325C6.89167 10.5417 6.5 9.6 6.5 8.5C6.5 7.4 6.89167 6.45833 7.675 5.675C8.45833 4.89167 9.4 4.5 10.5 4.5C11.6 4.5 12.5417 4.89167 13.325 5.675C14.1083 6.45833 14.5 7.4 14.5 8.5C14.5 9.6 14.1083 10.5417 13.325 11.325C12.5417 12.1083 11.6 12.5 10.5 12.5ZM2.5 18.5V17.7C2.5 17.15 2.64167 16.6333 2.925 16.15C3.20833 15.6667 3.6 15.3 4.1 15.05C5.06667 14.5667 6.06667 14.1875 7.1 13.9125C8.13333 13.6375 9.19167 13.5 10.275 13.5C10.5583 13.5 10.7958 13.6 10.9875 13.8C11.1792 14 11.275 14.2417 11.275 14.525C11.275 14.8083 11.1792 15.0458 10.9875 15.2375C10.7958 15.4292 10.5583 15.525 10.275 15.525C9.34167 15.525 8.4375 15.6417 7.5625 15.875C6.6875 16.1083 5.83333 16.4333 5 16.85C4.83333 16.9333 4.70833 17.05 4.625 17.2C4.54167 17.35 4.5 17.5167 4.5 17.7V18.5H10.275C10.5583 18.5 10.7958 18.5958 10.9875 18.7875C11.1792 18.9792 11.275 19.2167 11.275 19.5C11.275 19.7833 11.1792 20.0208 10.9875 20.2125C10.7958 20.4042 10.5583 20.5 10.275 20.5H4.5C3.95 20.5 3.47917 20.3042 3.0875 19.9125C2.69583 19.5208 2.5 19.05 2.5 18.5ZM16.35 20.7L16.2 20C16 19.9167 15.8125 19.8292 15.6375 19.7375C15.4625 19.6458 15.2833 19.5333 15.1 19.4L14.375 19.625C14.1583 19.6917 13.9458 19.6833 13.7375 19.6C13.5292 19.5167 13.3667 19.3833 13.25 19.2L13.05 18.85C12.9333 18.65 12.8917 18.4333 12.925 18.2C12.9583 17.9667 13.0667 17.775 13.25 17.625L13.8 17.15C13.7667 16.9167 13.75 16.7 13.75 16.5C13.75 16.3 13.7667 16.0833 13.8 15.85L13.25 15.375C13.0667 15.225 12.9583 15.0375 12.925 14.8125C12.8917 14.5875 12.9333 14.375 13.05 14.175L13.275 13.8C13.3917 13.6167 13.55 13.4833 13.75 13.4C13.95 13.3167 14.1583 13.3083 14.375 13.375L15.1 13.6C15.2833 13.4667 15.4625 13.3542 15.6375 13.2625C15.8125 13.1708 16 13.0833 16.2 13L16.35 12.275C16.4 12.0417 16.5125 11.8542 16.6875 11.7125C16.8625 11.5708 17.0667 11.5 17.3 11.5H17.7C17.9333 11.5 18.1375 11.575 18.3125 11.725C18.4875 11.875 18.6 12.0667 18.65 12.3L18.8 13C19 13.0833 19.1875 13.175 19.3625 13.275C19.5375 13.375 19.7167 13.5 19.9 13.65L20.575 13.425C20.8083 13.3417 21.0333 13.3417 21.25 13.425C21.4667 13.5083 21.6333 13.65 21.75 13.85L21.95 14.2C22.0667 14.4 22.1083 14.6167 22.075 14.85C22.0417 15.0833 21.9333 15.275 21.75 15.425L21.2 15.9C21.2333 16.1 21.25 16.3083 21.25 16.525C21.25 16.7417 21.2333 16.95 21.2 17.15L21.75 17.625C21.9333 17.775 22.0417 17.9625 22.075 18.1875C22.1083 18.4125 22.0667 18.625 21.95 18.825L21.725 19.2C21.6083 19.3833 21.45 19.5167 21.25 19.6C21.05 19.6833 20.8417 19.6917 20.625 19.625L19.9 19.4C19.7167 19.5333 19.5375 19.6458 19.3625 19.7375C19.1875 19.8292 19 19.9167 18.8 20L18.65 20.725C18.6 20.9583 18.4875 21.1458 18.3125 21.2875C18.1375 21.4292 17.9333 21.5 17.7 21.5H17.3C17.0667 21.5 16.8625 21.425 16.6875 21.275C16.5125 21.125 16.4 20.9333 16.35 20.7ZM17.5 18.5C18.05 18.5 18.5208 18.3042 18.9125 17.9125C19.3042 17.5208 19.5 17.05 19.5 16.5C19.5 15.95 19.3042 15.4792 18.9125 15.0875C18.5208 14.6958 18.05 14.5 17.5 14.5C16.95 14.5 16.4792 14.6958 16.0875 15.0875C15.6958 15.4792 15.5 15.95 15.5 16.5C15.5 17.05 15.6958 17.5208 16.0875 17.9125C16.4792 18.3042 16.95 18.5 17.5 18.5ZM10.5 10.5C11.05 10.5 11.5208 10.3042 11.9125 9.9125C12.3042 9.52083 12.5 9.05 12.5 8.5C12.5 7.95 12.3042 7.47917 11.9125 7.0875C11.5208 6.69583 11.05 6.5 10.5 6.5C9.95 6.5 9.47917 6.69583 9.0875 7.0875C8.69583 7.47917 8.5 7.95 8.5 8.5C8.5 9.05 8.69583 9.52083 9.0875 9.9125C9.47917 10.3042 9.95 10.5 10.5 10.5Z" fill="hsl(var(--neutral))"/>
</svg>