<svg width="32" height="33" viewBox="0 0 32 33" fill="none" xmlns="http://www.w3.org/2000/svg">
<path d="M5.33333 24.5C4.95556 24.5 4.63889 24.3722 4.38333 24.1167C4.12778 23.8611 4 23.5444 4 23.1667C4 22.7889 4.12778 22.4722 4.38333 22.2167C4.63889 21.9611 4.95556 21.8333 5.33333 21.8333H26.6667C27.0444 21.8333 27.3611 21.9611 27.6167 22.2167C27.8722 22.4722 28 22.7889 28 23.1667C28 23.5444 27.8722 23.8611 27.6167 24.1167C27.3611 24.3722 27.0444 24.5 26.6667 24.5H5.33333ZM5.33333 17.8333C4.95556 17.8333 4.63889 17.7056 4.38333 17.45C4.12778 17.1944 4 16.8778 4 16.5C4 16.1222 4.12778 15.8056 4.38333 15.55C4.63889 15.2944 4.95556 15.1667 5.33333 15.1667H26.6667C27.0444 15.1667 27.3611 15.2944 27.6167 15.55C27.8722 15.8056 28 16.1222 28 16.5C28 16.8778 27.8722 17.1944 27.6167 17.45C27.3611 17.7056 27.0444 17.8333 26.6667 17.8333H5.33333ZM5.33333 11.1667C4.95556 11.1667 4.63889 11.0389 4.38333 10.7833C4.12778 10.5278 4 10.2111 4 9.83333C4 9.45556 4.12778 9.13889 4.38333 8.88333C4.63889 8.62778 4.95556 8.5 5.33333 8.5H26.6667C27.0444 8.5 27.3611 8.62778 27.6167 8.88333C27.8722 9.13889 28 9.45556 28 9.83333C28 10.2111 27.8722 10.5278 27.6167 10.7833C27.3611 11.0389 27.0444 11.1667 26.6667 11.1667H5.33333Z" fill="currentColor"/>
</svg>