<svg width="24" height="24" viewBox="0 0 24 24" fill="none" xmlns="http://www.w3.org/2000/svg">
<path d="M11.0986 3.30693C11.3058 3.20647 11.6047 3.09395 11.7561 3.0618C12.3977 2.9292 13.0393 3.00956 13.649 3.30693C13.9638 3.45963 14.0794 3.54401 14.3663 3.83736C14.6453 4.11865 14.7409 4.25126 14.8963 4.56469C15.1554 5.0911 15.2231 5.36837 15.2191 5.93095C15.2191 6.59801 15.0677 7.06012 14.6732 7.60261L14.4938 7.84773L14.6373 7.89997C14.8605 7.98034 15.1115 8.23752 15.1872 8.47059C15.3865 9.07737 14.9202 9.74844 14.3026 9.74844H14.1671V9.98553C14.1671 10.311 14.3065 11.3759 14.438 12.059L14.5456 12.6216L14.8047 12.6457C15.3865 12.698 15.7691 13.0998 15.7691 13.6503C15.7691 13.9396 15.6176 14.245 15.3945 14.4018C15.3068 14.4661 15.243 14.5424 15.243 14.5906C15.243 14.884 15.5698 15.8685 15.8288 16.3386C16.1277 16.8811 16.6099 17.504 16.7374 17.504C16.853 17.504 17.1838 17.7009 17.2953 17.8335C17.5862 18.1791 17.662 18.6291 17.4946 19.039C17.4747 19.0872 17.4866 19.1113 17.5265 19.1113C17.658 19.1113 18.1521 19.4047 18.3115 19.5775C18.5387 19.8266 18.706 20.2003 18.7379 20.5298C18.7578 20.775 18.7539 20.7991 18.6582 20.8955L18.5546 21H12.3738H6.19296L6.08935 20.8955C5.99371 20.7991 5.98973 20.775 6.00965 20.5298C6.04153 20.2003 6.20891 19.8266 6.43605 19.5775C6.59546 19.4047 7.0896 19.1113 7.22111 19.1113C7.26096 19.1113 7.27292 19.0872 7.25299 19.039C7.12945 18.7336 7.13344 18.4363 7.26495 18.1389C7.40841 17.8094 7.58375 17.6567 7.97827 17.508C8.40866 17.3432 9.15386 16.0694 9.40891 15.0608C9.53643 14.5625 9.53244 14.5304 9.35311 14.4018C9.12995 14.245 8.97852 13.9396 8.97852 13.6503C8.97852 13.0998 9.36108 12.698 9.9429 12.6457L10.2019 12.6216L10.3095 12.059C10.441 11.3759 10.5805 10.311 10.5805 9.98553V9.74844H10.445C10.1182 9.74844 9.77952 9.52743 9.62011 9.21399C9.36905 8.72375 9.58425 8.12099 10.0824 7.91605L10.2498 7.84371L10.0704 7.59859C9.67989 7.06012 9.52846 6.59801 9.52846 5.93095C9.52447 5.36837 9.59222 5.0911 9.85125 4.56469C10.0067 4.25126 10.1023 4.11865 10.3813 3.83736C10.6682 3.54401 10.7838 3.45963 11.0986 3.30693Z" fill="currentColor"/>
</svg>