<svg width="24" height="24" viewBox="0 0 24 24" fill="none" xmlns="http://www.w3.org/2000/svg">
<path fill-rule="evenodd" clip-rule="evenodd" d="M12.3423 4.73435C11.825 4.33366 11.286 4.00163 10.7612 3.77346C9.81583 3.36431 8.78849 3.20761 7.88201 3.34255C7.45899 3.40348 6.82014 3.595 6.49209 3.7517C6.15108 3.9171 5.93525 4.13038 5.77986 4.46554C5.66763 4.70058 5.62446 5.15761 5.68921 5.40136L5.73669 5.57112L5.64173 5.48407C5.61948 5.46351 5.53835 5.38757 5.42088 5.27763C5.26476 5.13153 5.04448 4.92537 4.81295 4.70929C4.41151 4.33496 4.03165 4.00851 3.97554 3.98674C3.84604 3.93451 3.65612 4.05639 3.63453 4.20003C3.6259 4.25226 3.73813 4.74411 3.88058 5.2969C4.02734 5.84969 4.14388 6.32413 4.14388 6.35025C4.14388 6.38072 4.05755 6.49389 3.95396 6.6027C3.84604 6.71152 3.14676 7.76487 2.4 8.9488C1.10935 10.9859 1.03597 11.1121 1.03597 11.3036C1.03597 11.4908 1.0705 11.5561 1.45468 12.1088C1.88633 12.7313 2.03741 12.8706 2.27914 12.8706H2.28214C2.47337 12.8706 2.4751 12.8706 3.63453 12.0392C4.31655 11.5517 4.71367 11.2905 4.8259 11.2688C5.04604 11.2165 5.24029 11.2818 5.49065 11.4908C6.12518 12.0131 7.03166 12.1219 7.76547 11.7563C8.07194 11.6039 8.43885 11.2905 8.60288 11.0424C8.67194 10.9336 8.67194 10.938 8.67194 11.2165C8.68058 12.1915 7.80432 13.3058 6.14245 14.4375C5.11942 15.134 4.41583 15.6911 3.83309 16.2569C3.20719 16.8707 2.87482 17.2668 2.47338 17.8805C2.22734 18.2635 1.73525 19.2298 1.66187 19.4736L1.63597 19.5737H9.75258C9.69204 19.3119 9.71821 19.0544 9.83109 18.7969C9.98655 18.4368 10.1765 18.2699 10.604 18.1074C11.0704 17.9273 11.8779 16.535 12.1542 15.4325C12.2924 14.8879 12.2881 14.8528 12.0938 14.7122C11.852 14.5409 11.6879 14.2071 11.6879 13.8909C11.6879 13.2892 12.1024 12.85 12.7329 12.7929L13.0135 12.7665L13.1301 12.1516C13.2726 11.4049 13.4238 10.241 13.4238 9.88525V9.62611H13.2769C12.9229 9.62611 12.5558 9.38455 12.3831 9.04196C12.1111 8.50612 12.3442 7.84729 12.884 7.62329L13.0654 7.54424L12.871 7.27631C12.4479 6.68777 12.2838 6.18267 12.2838 5.45357C12.2818 5.16538 12.2968 4.94568 12.3423 4.73435ZM8.94436 20.3572H0.690647C0.309213 20.3572 0 20.669 0 21.0536C0 21.4382 0.309214 21.75 0.690648 21.75H8.50368C8.45296 21.6822 8.45392 21.6209 8.47089 21.4103C8.50544 21.0501 8.6868 20.6416 8.93293 20.3693C8.93658 20.3653 8.94039 20.3613 8.94436 20.3572Z" fill="white"/>
<path d="M15.7097 2.58247C15.9342 2.47365 16.2579 2.35178 16.4219 2.31696C17.1169 2.17332 17.8119 2.26037 18.4723 2.58247C18.8133 2.74787 18.9385 2.83928 19.2493 3.15702C19.5514 3.46171 19.655 3.60535 19.8234 3.94486C20.1039 4.51506 20.1773 4.8154 20.173 5.42477C20.173 6.14732 20.009 6.64787 19.5816 7.23548L19.3874 7.501L19.5428 7.55758C19.7845 7.64464 20.0565 7.92321 20.1385 8.17566C20.3543 8.83292 19.8493 9.55981 19.1802 9.55981H19.0334V9.81662C19.0334 10.1692 19.1845 11.3226 19.327 12.0626L19.4435 12.672L19.7241 12.6981C20.3543 12.7547 20.7687 13.1899 20.7687 13.7863C20.7687 14.0997 20.6047 14.4305 20.3629 14.6002C20.268 14.6699 20.1989 14.7526 20.1989 14.8048C20.1989 15.1225 20.5529 16.1889 20.8334 16.6982C21.1572 17.2858 21.6795 17.9605 21.8176 17.9605C21.9428 17.9605 22.3011 18.1738 22.4219 18.3174C22.737 18.6917 22.8191 19.1792 22.6378 19.6232C22.6162 19.6754 22.6291 19.7016 22.6723 19.7016C22.8147 19.7016 23.35 20.0193 23.5226 20.2065C23.7687 20.4763 23.95 20.8811 23.9845 21.2381C24.0061 21.5036 24.0018 21.5297 23.8982 21.6341L23.786 21.7473H17.091H10.396L10.2838 21.6341C10.1802 21.5297 10.1759 21.5036 10.1975 21.2381C10.232 20.8811 10.4133 20.4763 10.6593 20.2065C10.832 20.0193 11.3673 19.7016 11.5097 19.7016C11.5529 19.7016 11.5658 19.6754 11.5442 19.6232C11.4104 19.2924 11.4147 18.9703 11.5572 18.6482C11.7126 18.2913 11.9025 18.1259 12.3298 17.9648C12.796 17.7864 13.6032 16.4066 13.8795 15.3141C14.0176 14.7743 14.0133 14.7395 13.8191 14.6002C13.5773 14.4305 13.4133 14.0997 13.4133 13.7863C13.4133 13.1899 13.8277 12.7547 14.4579 12.6981L14.7385 12.672L14.855 12.0626C14.9975 11.3226 15.1485 10.1692 15.1485 9.81662V9.55981H15.0018C14.6478 9.55981 14.2809 9.32042 14.1083 8.98091C13.8363 8.44988 14.0694 7.79698 14.609 7.57499L14.7903 7.49664L14.596 7.23113C14.173 6.64787 14.009 6.14732 14.009 5.42477C14.0047 4.8154 14.078 4.51506 14.3586 3.94486C14.527 3.60535 14.6306 3.46171 14.9327 3.15702C15.2435 2.83928 15.3687 2.74787 15.7097 2.58247Z" fill="white"/>
</svg>