<svg width="24" height="25" viewBox="0 0 24 25" fill="none" xmlns="http://www.w3.org/2000/svg">
<path d="M12 17.5C11.05 17.5 10.1833 17.2625 9.4 16.7875C8.61667 16.3125 8.00833 15.675 7.575 14.875C7.45833 14.675 7.4375 14.4625 7.5125 14.2375C7.5875 14.0125 7.73333 13.8583 7.95 13.775C8.13333 13.6917 8.31667 13.6917 8.5 13.775C8.68333 13.8583 8.825 13.9917 8.925 14.175C9.225 14.725 9.65 15.1667 10.2 15.5C10.75 15.8333 11.35 16 12 16C12.9667 16 13.7917 15.6583 14.475 14.975C15.1583 14.2917 15.5 13.4667 15.5 12.5C15.5 11.5333 15.1583 10.7083 14.475 10.025C13.7917 9.34167 12.9667 9 12 9C11.5333 9 11.0917 9.08333 10.675 9.25C10.2583 9.41667 9.88333 9.66667 9.55 10H10.25C10.4667 10 10.6458 10.0708 10.7875 10.2125C10.9292 10.3542 11 10.5333 11 10.75C11 10.9667 10.9292 11.1458 10.7875 11.2875C10.6458 11.4292 10.4667 11.5 10.25 11.5H8C7.71667 11.5 7.47917 11.4042 7.2875 11.2125C7.09583 11.0208 7 10.7833 7 10.5V8.25C7 8.03333 7.07083 7.85417 7.2125 7.7125C7.35417 7.57083 7.53333 7.5 7.75 7.5C7.96667 7.5 8.14583 7.57083 8.2875 7.7125C8.42917 7.85417 8.5 8.03333 8.5 8.25V8.925C8.98333 8.475 9.525 8.125 10.125 7.875C10.725 7.625 11.35 7.5 12 7.5C13.3833 7.5 14.5625 7.9875 15.5375 8.9625C16.5125 9.9375 17 11.1167 17 12.5C17 13.8833 16.5125 15.0625 15.5375 16.0375C14.5625 17.0125 13.3833 17.5 12 17.5ZM5 21.5C4.45 21.5 3.97917 21.3042 3.5875 20.9125C3.19583 20.5208 3 20.05 3 19.5V16.5C3 16.2167 3.09583 15.9792 3.2875 15.7875C3.47917 15.5958 3.71667 15.5 4 15.5C4.28333 15.5 4.52083 15.5958 4.7125 15.7875C4.90417 15.9792 5 16.2167 5 16.5V19.5H8C8.28333 19.5 8.52083 19.5958 8.7125 19.7875C8.90417 19.9792 9 20.2167 9 20.5C9 20.7833 8.90417 21.0208 8.7125 21.2125C8.52083 21.4042 8.28333 21.5 8 21.5H5ZM19 21.5H16C15.7167 21.5 15.4792 21.4042 15.2875 21.2125C15.0958 21.0208 15 20.7833 15 20.5C15 20.2167 15.0958 19.9792 15.2875 19.7875C15.4792 19.5958 15.7167 19.5 16 19.5H19V16.5C19 16.2167 19.0958 15.9792 19.2875 15.7875C19.4792 15.5958 19.7167 15.5 20 15.5C20.2833 15.5 20.5208 15.5958 20.7125 15.7875C20.9042 15.9792 21 16.2167 21 16.5V19.5C21 20.05 20.8042 20.5208 20.4125 20.9125C20.0208 21.3042 19.55 21.5 19 21.5ZM3 8.5V5.5C3 4.95 3.19583 4.47917 3.5875 4.0875C3.97917 3.69583 4.45 3.5 5 3.5H8C8.28333 3.5 8.52083 3.59583 8.7125 3.7875C8.90417 3.97917 9 4.21667 9 4.5C9 4.78333 8.90417 5.02083 8.7125 5.2125C8.52083 5.40417 8.28333 5.5 8 5.5H5V8.5C5 8.78333 4.90417 9.02083 4.7125 9.2125C4.52083 9.40417 4.28333 9.5 4 9.5C3.71667 9.5 3.47917 9.40417 3.2875 9.2125C3.09583 9.02083 3 8.78333 3 8.5ZM19 8.5V5.5H16C15.7167 5.5 15.4792 5.40417 15.2875 5.2125C15.0958 5.02083 15 4.78333 15 4.5C15 4.21667 15.0958 3.97917 15.2875 3.7875C15.4792 3.59583 15.7167 3.5 16 3.5H19C19.55 3.5 20.0208 3.69583 20.4125 4.0875C20.8042 4.47917 21 4.95 21 5.5V8.5C21 8.78333 20.9042 9.02083 20.7125 9.2125C20.5208 9.40417 20.2833 9.5 20 9.5C19.7167 9.5 19.4792 9.40417 19.2875 9.2125C19.0958 9.02083 19 8.78333 19 8.5Z" fill="currentColor"/>
</svg>