<svg width="19" height="18" viewBox="0 0 19 18" fill="none" xmlns="http://www.w3.org/2000/svg">
<path d="M2.75 13.5C2.3375 13.5 1.98438 13.3531 1.69063 13.0594C1.39688 12.7656 1.25 12.4125 1.25 12C1.25 11.5875 1.39688 11.2344 1.69063 10.9406C1.98438 10.6469 2.3375 10.5 2.75 10.5H2.94688C3.00313 10.5 3.0625 10.5125 3.125 10.5375L6.5375 7.125C6.5125 7.0625 6.5 7.00312 6.5 6.94688V6.75C6.5 6.3375 6.64687 5.98438 6.94063 5.69062C7.23438 5.39687 7.5875 5.25 8 5.25C8.4125 5.25 8.76563 5.39687 9.05938 5.69062C9.35313 5.98438 9.5 6.3375 9.5 6.75C9.5 6.775 9.4875 6.9 9.4625 7.125L11.375 9.0375C11.4375 9.0125 11.4969 9 11.5531 9H11.9469C12.0031 9 12.0625 9.0125 12.125 9.0375L14.7875 6.375C14.7625 6.3125 14.75 6.25313 14.75 6.19688V6C14.75 5.5875 14.8969 5.23438 15.1906 4.94063C15.4844 4.64688 15.8375 4.5 16.25 4.5C16.6625 4.5 17.0156 4.64688 17.3094 4.94063C17.6031 5.23438 17.75 5.5875 17.75 6C17.75 6.4125 17.6031 6.76562 17.3094 7.05938C17.0156 7.35313 16.6625 7.5 16.25 7.5H16.0531C15.9969 7.5 15.9375 7.4875 15.875 7.4625L13.2125 10.125C13.2375 10.1875 13.25 10.2469 13.25 10.3031V10.5C13.25 10.9125 13.1031 11.2656 12.8094 11.5594C12.5156 11.8531 12.1625 12 11.75 12C11.3375 12 10.9844 11.8531 10.6906 11.5594C10.3969 11.2656 10.25 10.9125 10.25 10.5V10.3031C10.25 10.2469 10.2625 10.1875 10.2875 10.125L8.375 8.2125C8.3125 8.2375 8.25312 8.25 8.19687 8.25H8C7.975 8.25 7.85 8.2375 7.625 8.2125L4.2125 11.625C4.2375 11.6875 4.25 11.7469 4.25 11.8031V12C4.25 12.4125 4.10313 12.7656 3.80938 13.0594C3.51562 13.3531 3.1625 13.5 2.75 13.5Z" fill="hsl(var(--neutral))"/>
</svg>