<svg width="18" height="18" viewBox="0 0 18 18" fill="none" xmlns="http://www.w3.org/2000/svg">
<path d="M9.75078 9.45V6.75C9.75078 6.5375 9.67891 6.35938 9.53516 6.21563C9.39141 6.07188 9.21328 6 9.00078 6C8.78828 6 8.61016 6.07188 8.46641 6.21563C8.32266 6.35938 8.25078 6.5375 8.25078 6.75V9.73125C8.25078 9.83125 8.26953 9.92813 8.30703 10.0219C8.34453 10.1156 8.40078 10.2 8.47578 10.275L10.5758 12.375C10.7133 12.5125 10.8883 12.5813 11.1008 12.5813C11.3133 12.5813 11.4883 12.5125 11.6258 12.375C11.7633 12.2375 11.832 12.0625 11.832 11.85C11.832 11.6375 11.7633 11.4625 11.6258 11.325L9.75078 9.45ZM9.00078 16.5C8.06328 16.5 7.18516 16.3219 6.36641 15.9656C5.54766 15.6094 4.83516 15.1281 4.22891 14.5219C3.62266 13.9156 3.14141 13.2031 2.78516 12.3844C2.42891 11.5656 2.25078 10.6875 2.25078 9.75C2.25078 8.8125 2.42891 7.93438 2.78516 7.11563C3.14141 6.29688 3.62266 5.58438 4.22891 4.97813C4.83516 4.37188 5.54766 3.89063 6.36641 3.53438C7.18516 3.17813 8.06328 3 9.00078 3C9.93828 3 10.8164 3.17813 11.6352 3.53438C12.4539 3.89063 13.1664 4.37188 13.7727 4.97813C14.3789 5.58438 14.8602 6.29688 15.2164 7.11563C15.5727 7.93438 15.7508 8.8125 15.7508 9.75C15.7508 10.6875 15.5727 11.5656 15.2164 12.3844C14.8602 13.2031 14.3789 13.9156 13.7727 14.5219C13.1664 15.1281 12.4539 15.6094 11.6352 15.9656C10.8164 16.3219 9.93828 16.5 9.00078 16.5ZM1.53828 5.475C1.40078 5.3375 1.33203 5.1625 1.33203 4.95C1.33203 4.7375 1.40078 4.5625 1.53828 4.425L3.67578 2.2875C3.81328 2.15 3.98828 2.08125 4.20078 2.08125C4.41328 2.08125 4.58828 2.15 4.72578 2.2875C4.86328 2.425 4.93203 2.6 4.93203 2.8125C4.93203 3.025 4.86328 3.2 4.72578 3.3375L2.58828 5.475C2.45078 5.6125 2.27578 5.68125 2.06328 5.68125C1.85078 5.68125 1.67578 5.6125 1.53828 5.475ZM16.4633 5.475C16.3258 5.6125 16.1508 5.68125 15.9383 5.68125C15.7258 5.68125 15.5508 5.6125 15.4133 5.475L13.2758 3.3375C13.1383 3.2 13.0695 3.025 13.0695 2.8125C13.0695 2.6 13.1383 2.425 13.2758 2.2875C13.4133 2.15 13.5883 2.08125 13.8008 2.08125C14.0133 2.08125 14.1883 2.15 14.3258 2.2875L16.4633 4.425C16.6008 4.5625 16.6695 4.7375 16.6695 4.95C16.6695 5.1625 16.6008 5.3375 16.4633 5.475ZM9.00078 15C10.4633 15 11.7039 14.4906 12.7227 13.4719C13.7414 12.4531 14.2508 11.2125 14.2508 9.75C14.2508 8.2875 13.7414 7.04688 12.7227 6.02813C11.7039 5.00938 10.4633 4.5 9.00078 4.5C7.53828 4.5 6.29766 5.00938 5.27891 6.02813C4.26016 7.04688 3.75078 8.2875 3.75078 9.75C3.75078 11.2125 4.26016 12.4531 5.27891 13.4719C6.29766 14.4906 7.53828 15 9.00078 15Z" fill="currentColor"/>
</svg>