<svg width="18" height="19" viewBox="0 0 18 19" fill="none" xmlns="http://www.w3.org/2000/svg">
<mask id="mask0_237_1481" style="mask-type:alpha" maskUnits="userSpaceOnUse" x="0" y="0" width="18" height="19">
<rect y="0.5" width="18" height="18" fill="#D9D9D9"/>
</mask>
<g mask="url(#mask0_237_1481)">
<path d="M2.04384 16.25C1.90634 16.25 1.78134 16.2156 1.66884 16.1469C1.55634 16.0781 1.46884 15.9875 1.40634 15.875C1.34384 15.7625 1.30946 15.6406 1.30321 15.5094C1.29696 15.3781 1.33134 15.25 1.40634 15.125L8.34384 3.125C8.41884 3 8.51571 2.90625 8.63446 2.84375C8.75321 2.78125 8.87509 2.75 9.00009 2.75C9.12509 2.75 9.24696 2.78125 9.36571 2.84375C9.48446 2.90625 9.58134 3 9.65634 3.125L16.5938 15.125C16.6688 15.25 16.7032 15.3781 16.697 15.5094C16.6907 15.6406 16.6563 15.7625 16.5938 15.875C16.5313 15.9875 16.4438 16.0781 16.3313 16.1469C16.2188 16.2156 16.0938 16.25 15.9563 16.25H2.04384ZM3.33759 14.75H14.6626L9.00009 5L3.33759 14.75ZM9.00009 14C9.21259 14 9.39071 13.9281 9.53446 13.7844C9.67821 13.6406 9.75009 13.4625 9.75009 13.25C9.75009 13.0375 9.67821 12.8594 9.53446 12.7156C9.39071 12.5719 9.21259 12.5 9.00009 12.5C8.78759 12.5 8.60946 12.5719 8.46571 12.7156C8.32196 12.8594 8.25009 13.0375 8.25009 13.25C8.25009 13.4625 8.32196 13.6406 8.46571 13.7844C8.60946 13.9281 8.78759 14 9.00009 14ZM9.00009 11.75C9.21259 11.75 9.39071 11.6781 9.53446 11.5344C9.67821 11.3906 9.75009 11.2125 9.75009 11V8.75C9.75009 8.5375 9.67821 8.35938 9.53446 8.21562C9.39071 8.07188 9.21259 8 9.00009 8C8.78759 8 8.60946 8.07188 8.46571 8.21562C8.32196 8.35938 8.25009 8.5375 8.25009 8.75V11C8.25009 11.2125 8.32196 11.3906 8.46571 11.5344C8.60946 11.6781 8.78759 11.75 9.00009 11.75Z" fill="currentColor"/>
</g>
</svg>
