<svg viewBox="0 0 130 128" fill="none" xmlns="http://www.w3.org/2000/svg">
<path d="M66.3536 128C62.4978 127.847 58.6229 127.876 54.7902 127.491C50.9178 127.103 47.0698 126.388 43.2409 125.658C39.5539 124.955 35.9756 123.791 32.5328 122.317C30.1702 121.306 27.8985 120.046 25.6906 118.725C20.3455 115.525 15.8391 111.36 12.1776 106.341C9.52619 102.706 7.31962 98.8071 5.83665 94.5282C5.15908 92.5735 4.23094 90.6942 3.68889 88.7063C2.51273 84.3877 1.70093 79.9899 1.288 75.5244C0.830323 70.5731 0.547791 65.6127 0.758731 60.6422C0.892966 57.4947 1.05916 54.3524 1.49127 51.2113C1.99497 47.5511 2.73262 43.9536 3.57511 40.3689C4.60041 36.0108 6.41194 31.9671 8.37049 27.9515C9.94679 24.7197 12.2927 22.0925 14.388 19.2557C16.7301 16.0826 19.668 13.5744 22.8627 11.2924C27.3411 8.09245 32.2375 5.75293 37.4458 4.07052C41.8461 2.65019 46.3436 1.67347 50.9498 1.02914C55.7132 0.361803 60.4664 -0.0856463 65.258 0.014071C68.9168 0.0907767 72.6038 0.186659 76.2166 0.69803C79.6147 1.17872 83.0588 1.39989 86.4083 2.27561C91.6715 3.6512 96.7789 5.41671 101.596 7.95311C104.97 9.72884 108.092 11.9188 110.881 14.4833C113.11 16.5314 115.051 18.8964 117.037 21.1938C117.85 22.1347 118.492 23.238 119.122 24.3195C120.366 26.4545 121.689 28.5601 122.725 30.796C124.858 35.3984 126.263 40.2475 127.283 45.218C128.324 50.2857 128.884 55.4134 129.09 60.5617C129.239 64.3024 129.137 68.075 128.838 71.8093C128.338 78.0697 127.54 84.3302 125.552 90.3056C123.634 96.07 121.233 101.64 117.498 106.576C112.059 113.766 105.162 118.979 96.8786 122.461C92.0794 124.478 87.0577 125.68 81.9542 126.587C76.797 127.504 71.6028 128.019 66.351 128.001L66.3536 128Z" fill="#83B352"/>
<path d="M35.3626 38.1789C30.7125 39.6599 26.7742 43.1475 25.3982 46.9695C24.5915 49.3105 25.2084 50.4093 27.3436 50.4093C28.7197 50.4093 29.0993 50.1227 30.1431 48.3072C31.8988 45.3452 34.2238 43.6253 37.7351 42.7175C43.9035 41.1409 49.4076 43.3386 52.6817 48.5939C54.0577 50.8393 55.5761 51.2693 56.9521 49.8838C58.0909 48.785 57.9011 47.6862 56.1929 45.1063C51.875 38.7044 42.9545 35.7423 35.3626 38.1789Z" fill="black"/>
<path d="M84.0451 38.2578C80.4026 39.4881 77.2805 41.8067 75.3883 44.6932C73.023 48.1948 73.5907 50.8446 76.5236 50.4661C77.4224 50.3715 78.0847 49.8509 78.6996 48.668C79.9769 46.302 83.1463 43.5575 85.417 42.895C88.3026 41.996 93.1277 42.2326 95.6349 43.3209C98.1894 44.4566 99.8451 45.9708 101.501 48.6206C102.494 50.1822 103.014 50.5607 104.15 50.5607C105.238 50.5607 105.711 50.2768 106.137 49.3304C106.61 48.2894 106.515 47.8162 105.569 45.9708C104.055 43.0843 100.413 39.9613 97.1487 38.6836C93.2696 37.2168 87.7349 37.0275 84.0451 38.2578Z" fill="black"/>
<path d="M23.6165 68.5706C22.9058 69.8995 23.3796 71.181 25.8908 74.5033C29.9181 79.8665 36.5513 84.85 42.9476 87.2706C50.6706 90.2132 52.9448 90.5929 63.8896 90.5929C72.9392 90.6404 74.5501 90.498 78.2458 89.5488C86.7268 87.413 93.8812 83.5686 99.2351 78.2528C105.3 72.2251 106.816 67.6213 102.741 67.6213C101.794 67.6213 101.13 68.2858 99.4247 70.8013C95.2552 77.0188 86.8689 82.5244 78.3405 84.6602C64.932 88.0774 48.3963 86.084 38.5886 79.8665C35.3668 77.8257 30.1076 72.7472 28.3072 69.8995C27.1227 68.0485 26.6015 67.6213 25.4643 67.6213C24.6115 67.6213 23.9482 67.9536 23.6165 68.5706Z" fill="black"/>
</svg>