<svg viewBox="0 0 130 128" fill="none" xmlns="http://www.w3.org/2000/svg">
<path d="M66.2457 128C62.39 127.847 58.5151 127.876 54.6823 127.491C50.81 127.103 46.9619 126.388 43.133 125.658C39.446 124.955 35.8677 123.791 32.4249 122.317C30.0624 121.306 27.7906 120.046 25.5828 118.725C20.2377 115.525 15.7312 111.36 12.0698 106.341C9.41834 102.706 7.21177 98.8071 5.7288 94.5282C5.05123 92.5735 4.12309 90.6942 3.58104 88.7063C2.40488 84.3877 1.59308 79.9899 1.18015 75.5244C0.722474 70.573 0.439941 65.6127 0.650882 60.6422C0.785117 57.4947 0.951312 54.3524 1.38342 51.2113C1.88712 47.5511 2.62477 43.9536 3.46726 40.3689C4.49256 36.0108 6.30409 31.9671 8.26264 27.9515C9.83894 24.7197 12.1849 22.0925 14.2802 19.2557C16.6223 16.0826 19.5601 13.5744 22.7549 11.2924C27.2332 8.09245 32.1296 5.75293 37.3379 4.07052C41.7383 2.65019 46.2358 1.67347 50.8419 1.02914C55.6054 0.361803 60.3586 -0.0856463 65.1501 0.014071C68.809 0.0907767 72.496 0.186659 76.1088 0.69803C79.5068 1.17872 82.9509 1.39989 86.3004 2.27561C91.5637 3.6512 96.671 5.41671 101.488 7.95311C104.862 9.72884 107.984 11.9188 110.773 14.4833C113.002 16.5314 114.944 18.8964 116.929 21.1938C117.742 22.1347 118.384 23.238 119.014 24.3195C120.258 26.4545 121.581 28.5601 122.617 30.796C124.75 35.3984 126.155 40.2475 127.176 45.218C128.216 50.2857 128.776 55.4134 128.982 60.5617C129.132 64.3024 129.029 68.075 128.73 71.8093C128.23 78.0697 127.433 84.3302 125.445 90.3056C123.526 96.07 121.125 101.64 117.39 106.576C111.951 113.766 105.054 118.979 96.7707 122.461C91.9715 124.478 86.9499 125.68 81.8464 126.587C76.6892 127.504 71.4949 128.019 66.2432 128.001L66.2457 128Z" fill="#B35327"/>
<path d="M50.2606 37.0011C45.6368 36.2739 39.0335 33.9781 37.3097 32.5574C36.8225 32.1559 35.7576 31.8446 34.9615 31.8178C33.7179 31.7997 33.4267 32.0002 32.9853 33.1467C32.5813 34.3241 32.6958 34.796 33.8332 35.8593C36.496 38.4314 46.6556 41.8333 52.7635 42.2105C55.3633 42.3393 56.7947 41.4424 56.6366 39.8018C56.4982 38.3662 55.1335 37.8078 50.2606 37.0011Z" fill="black"/>
<path d="M72.9314 41.4654C73.5146 43.2403 74.3101 43.5344 76.9115 43.073C82.5937 42.0724 92.1611 37.6669 95.0241 34.6934C96.2703 33.399 96.0668 31.72 94.5755 30.9583C93.4315 30.3961 92.4081 30.759 90.207 32.4148C87.7016 34.3169 81.6399 37.0418 77.7416 37.9399C73.912 38.8367 72.4559 39.929 72.9314 41.4654Z" fill="black"/>
<path d="M23.1844 58.3312C22.456 59.8852 23.9128 62.6046 27.0694 65.5669C31.0028 69.2576 33.1396 69.986 39.7439 70.0345C44.6487 70.0345 45.6199 69.8889 47.6109 68.9176C50.7674 67.3151 53.924 64.45 55.2837 61.8762C56.2549 59.9823 56.352 59.4967 55.8664 58.4283C55.4779 57.5056 54.9438 57.1657 53.924 57.1657C52.807 57.1657 52.2729 57.6513 50.9131 59.6909C47.7566 64.45 42.6091 66.5867 37.0245 65.4212C32.6539 64.4985 30.1287 62.8474 28.0891 59.5452C26.8751 57.5542 26.3895 57.1657 25.1754 57.1657C24.1071 57.1657 23.5729 57.4571 23.1844 58.3312Z" fill="black"/>
<path d="M73.4945 57.9427C70.9207 60.565 78.2535 68.3834 84.6151 69.8403C88.4029 70.6658 94.813 70.1802 97.5811 68.869C100.835 67.3151 103.408 64.9355 105.011 62.0218C106.176 59.9337 106.322 59.3024 105.837 58.3311C105.448 57.5056 104.914 57.1657 103.894 57.1657C102.68 57.1657 102.146 57.6027 100.592 59.9337C97.4354 64.6927 92.045 66.6838 86.2662 65.1783C82.187 64.1586 80.2445 62.7988 78.3021 59.788C76.5053 56.9714 75.0484 56.4372 73.4945 57.9427Z" fill="black"/>
<path d="M71.066 85.6228C65.6757 86.7883 57.8087 89.5563 53.5838 91.7902C50.0874 93.6841 49.6989 94.024 49.5532 95.4323C49.4075 96.6949 49.6018 97.0834 50.6701 97.569C51.787 98.0546 52.3212 97.9089 55.2349 96.355C59.7026 93.9269 66.7926 91.4017 72.0373 90.3819C74.4653 89.9448 76.6992 89.3621 77.0391 89.0707C78.4474 87.9538 77.1362 84.7973 75.2909 84.8944C74.8538 84.8944 72.9599 85.2343 71.066 85.6228Z" fill="black"/>
</svg>
