<svg width="32" height="13" viewBox="0 0 32 13" fill="none" xmlns="http://www.w3.org/2000/svg">
<path d="M0.327813 12L3.84781 0.48H7.09581L10.6158 12H8.37581L5.23981 1.84H5.65581L2.56781 12H0.327813ZM2.43981 9.6V7.568H8.51981V9.6H2.43981ZM16.6812 12.24C15.5292 12.24 14.5345 11.9893 13.6972 11.488C12.8652 10.9867 12.2225 10.2853 11.7692 9.384C11.3212 8.48267 11.0972 7.43467 11.0972 6.24C11.0972 5.04533 11.3212 3.99733 11.7692 3.096C12.2225 2.19467 12.8652 1.49333 13.6972 0.992C14.5345 0.490666 15.5292 0.24 16.6812 0.24C18.0039 0.24 19.1132 0.568 20.0092 1.224C20.9105 1.88 21.5452 2.768 21.9132 3.888L19.7212 4.496C19.5079 3.79733 19.1479 3.256 18.6412 2.872C18.1345 2.48267 17.4812 2.288 16.6812 2.288C15.9505 2.288 15.3399 2.45067 14.8492 2.776C14.3639 3.10133 13.9985 3.56 13.7532 4.152C13.5079 4.744 13.3852 5.44 13.3852 6.24C13.3852 7.04 13.5079 7.736 13.7532 8.328C13.9985 8.92 14.3639 9.37867 14.8492 9.704C15.3399 10.0293 15.9505 10.192 16.6812 10.192C17.4812 10.192 18.1345 9.99733 18.6412 9.608C19.1479 9.21867 19.5079 8.67733 19.7212 7.984L21.9132 8.592C21.5452 9.712 20.9105 10.6 20.0092 11.256C19.1132 11.912 18.0039 12.24 16.6812 12.24ZM23.6747 12V0.48H31.1947V2.512H25.8507V4.976H30.2347V7.008H25.8507V9.968H31.1947V12H23.6747Z" fill="currentColor"/>
</svg>
