<svg viewBox="0 0 17 16" fill="none" xmlns="http://www.w3.org/2000/svg">
<path d="M7.8335 8.66665H4.50016C4.31127 8.66665 4.15294 8.60276 4.02516 8.47498C3.89738 8.3472 3.8335 8.18887 3.8335 7.99998C3.8335 7.81109 3.89738 7.65276 4.02516 7.52498C4.15294 7.3972 4.31127 7.33331 4.50016 7.33331H7.8335V3.99998C7.8335 3.81109 7.89738 3.65276 8.02516 3.52498C8.15294 3.3972 8.31127 3.33331 8.50016 3.33331C8.68905 3.33331 8.84738 3.3972 8.97516 3.52498C9.10294 3.65276 9.16683 3.81109 9.16683 3.99998V7.33331H12.5002C12.6891 7.33331 12.8474 7.3972 12.9752 7.52498C13.1029 7.65276 13.1668 7.81109 13.1668 7.99998C13.1668 8.18887 13.1029 8.3472 12.9752 8.47498C12.8474 8.60276 12.6891 8.66665 12.5002 8.66665H9.16683V12C9.16683 12.1889 9.10294 12.3472 8.97516 12.475C8.84738 12.6028 8.68905 12.6666 8.50016 12.6666C8.31127 12.6666 8.15294 12.6028 8.02516 12.475C7.89738 12.3472 7.8335 12.1889 7.8335 12V8.66665Z" fill="currentColor"/>
</svg>