<svg viewBox="0 0 24 24" fill="none" xmlns="http://www.w3.org/2000/svg">
<path d="M4 23C3.45 23 2.97917 22.8042 2.5875 22.4125C2.19583 22.0208 2 21.55 2 21C2 20.45 2.19583 19.9792 2.5875 19.5875C2.97917 19.1958 3.45 19 4 19H20C20.55 19 21.0208 19.1958 21.4125 19.5875C21.8042 19.9792 22 20.45 22 21C22 21.55 21.8042 22.0208 21.4125 22.4125C21.0208 22.8042 20.55 23 20 23H4ZM6 15H7.4L15.2 7.225L13.775 5.8L6 13.6V15ZM4 16V13.175C4 13.0417 4.025 12.9125 4.075 12.7875C4.125 12.6625 4.2 12.55 4.3 12.45L15.2 1.575C15.3833 1.39167 15.5958 1.25 15.8375 1.15C16.0792 1.05 16.3333 1 16.6 1C16.8667 1 17.125 1.05 17.375 1.15C17.625 1.25 17.85 1.4 18.05 1.6L19.425 3C19.625 3.18333 19.7708 3.4 19.8625 3.65C19.9542 3.9 20 4.15833 20 4.425C20 4.675 19.9542 4.92083 19.8625 5.1625C19.7708 5.40417 19.625 5.625 19.425 5.825L8.55 16.7C8.45 16.8 8.3375 16.875 8.2125 16.925C8.0875 16.975 7.95833 17 7.825 17H5C4.71667 17 4.47917 16.9042 4.2875 16.7125C4.09583 16.5208 4 16.2833 4 16Z" fill="currentColor"/>
</svg>