<svg viewBox="0 0 18 18" fill="none" xmlns="http://www.w3.org/2000/svg">
<path d="M13.1625 6.88125L15.8063 4.21875C15.9563 4.06875 16.1344 3.99375 16.3406 3.99375C16.5469 3.99375 16.725 4.06875 16.875 4.21875C17.025 4.36875 17.1 4.54688 17.1 4.75313C17.1 4.95938 17.025 5.1375 16.875 5.2875L13.6875 8.475C13.5375 8.625 13.3625 8.7 13.1625 8.7C12.9625 8.7 12.7875 8.625 12.6375 8.475L11.0438 6.88125C10.8938 6.73125 10.8188 6.55313 10.8188 6.34688C10.8188 6.14062 10.8938 5.9625 11.0438 5.8125C11.1938 5.6625 11.3688 5.5875 11.5688 5.5875C11.7688 5.5875 11.9438 5.6625 12.0938 5.8125L13.1625 6.88125ZM6.75 9C5.925 9 5.21875 8.70625 4.63125 8.11875C4.04375 7.53125 3.75 6.825 3.75 6C3.75 5.175 4.04375 4.46875 4.63125 3.88125C5.21875 3.29375 5.925 3 6.75 3C7.575 3 8.28125 3.29375 8.86875 3.88125C9.45625 4.46875 9.75 5.175 9.75 6C9.75 6.825 9.45625 7.53125 8.86875 8.11875C8.28125 8.70625 7.575 9 6.75 9ZM0.75 13.5V12.9C0.75 12.475 0.859375 12.0844 1.07813 11.7281C1.29688 11.3719 1.5875 11.1 1.95 10.9125C2.725 10.525 3.5125 10.2344 4.3125 10.0406C5.1125 9.84687 5.925 9.75 6.75 9.75C7.575 9.75 8.3875 9.84687 9.1875 10.0406C9.9875 10.2344 10.775 10.525 11.55 10.9125C11.9125 11.1 12.2031 11.3719 12.4219 11.7281C12.6406 12.0844 12.75 12.475 12.75 12.9V13.5C12.75 13.9125 12.6031 14.2656 12.3094 14.5594C12.0156 14.8531 11.6625 15 11.25 15H2.25C1.8375 15 1.48438 14.8531 1.19063 14.5594C0.896875 14.2656 0.75 13.9125 0.75 13.5ZM2.25 13.5H11.25V12.9C11.25 12.7625 11.2156 12.6375 11.1469 12.525C11.0781 12.4125 10.9875 12.325 10.875 12.2625C10.2 11.925 9.51875 11.6719 8.83125 11.5031C8.14375 11.3344 7.45 11.25 6.75 11.25C6.05 11.25 5.35625 11.3344 4.66875 11.5031C3.98125 11.6719 3.3 11.925 2.625 12.2625C2.5125 12.325 2.42188 12.4125 2.35313 12.525C2.28438 12.6375 2.25 12.7625 2.25 12.9V13.5ZM6.75 7.5C7.1625 7.5 7.51563 7.35313 7.80938 7.05937C8.10313 6.76562 8.25 6.4125 8.25 6C8.25 5.5875 8.10313 5.23438 7.80938 4.94063C7.51563 4.64688 7.1625 4.5 6.75 4.5C6.3375 4.5 5.98438 4.64688 5.69063 4.94063C5.39688 5.23438 5.25 5.5875 5.25 6C5.25 6.4125 5.39688 6.76562 5.69063 7.05937C5.98438 7.35313 6.3375 7.5 6.75 7.5Z" fill="currentColor"/>
</svg>
