<svg width="56" height="56" viewBox="0 0 56 56" fill="none" xmlns="http://www.w3.org/2000/svg">
<mask id="mask0_75_2094" style="mask-type:alpha" maskUnits="userSpaceOnUse" x="0" y="0" width="56" height="56">
<rect width="56" height="56" fill="#D9D9D9"/>
</mask>
<g mask="url(#mask0_75_2094)">
<path d="M27.9999 52.5C27.4944 52.5 27.0083 52.4222 26.5416 52.2667C26.0749 52.1111 25.6277 51.8778 25.1999 51.5667L11.1999 41.0667C10.6166 40.6389 10.1596 40.0944 9.82909 39.4333C9.49853 38.7722 9.33325 38.0722 9.33325 37.3333V9.33334C9.33325 8.05 9.7902 6.95139 10.7041 6.03751C11.618 5.12362 12.7166 4.66667 13.9999 4.66667H41.9999C43.2833 4.66667 44.3819 5.12362 45.2958 6.03751C46.2096 6.95139 46.6666 8.05 46.6666 9.33334V37.3333C46.6666 38.0722 46.5013 38.7722 46.1708 39.4333C45.8402 40.0944 45.3833 40.6389 44.7999 41.0667L30.7999 51.5667C30.3721 51.8778 29.9249 52.1111 29.4583 52.2667C28.9916 52.4222 28.5055 52.5 27.9999 52.5ZM27.9999 47.8333L41.9999 37.3333V9.33334H13.9999V37.3333L27.9999 47.8333ZM25.5499 28.35L22.2833 25.0833C21.8166 24.6167 21.2721 24.3931 20.6499 24.4125C20.0277 24.4319 19.4833 24.6556 19.0166 25.0833C18.5499 25.55 18.3069 26.1042 18.2874 26.7458C18.268 27.3875 18.4916 27.9417 18.9583 28.4083L23.9166 33.3667C24.3833 33.8333 24.9277 34.0667 25.5499 34.0667C26.1721 34.0667 26.7166 33.8333 27.1833 33.3667L37.0999 23.45C37.5666 22.9833 37.7902 22.4389 37.7708 21.8167C37.7513 21.1944 37.5277 20.65 37.0999 20.1833C36.6333 19.7167 36.0791 19.4736 35.4374 19.4542C34.7958 19.4347 34.2416 19.6583 33.7749 20.125L25.5499 28.35Z" fill="hsl(var(--neutral))"/>
</g>
</svg>
