<svg width="1450" height="1450" viewBox="0 0 1450 1450" fill="none" xmlns="http://www.w3.org/2000/svg">
<g clip-path="url(#clip0_43_214)">
<rect width="128" height="128" transform="translate(0.922852 725) rotate(-45)" fill="#6C8C4B"/>
<rect width="128" height="128" transform="translate(91.4326 634.49) rotate(-45)" fill="#3A362E"/>
<rect width="128" height="128" transform="translate(181.942 543.981) rotate(-45)" fill="#6C8C4B"/>
<rect width="128" height="128" transform="translate(272.452 453.471) rotate(-45)" fill="#3A362E"/>
<rect width="128" height="128" transform="translate(362.961 362.961) rotate(-45)" fill="#6C8C4B"/>
<rect width="128" height="128" transform="translate(453.471 272.452) rotate(-45)" fill="#3A362E"/>
<rect width="128" height="128" transform="translate(543.981 181.942) rotate(-45)" fill="#6C8C4B"/>
<rect width="128" height="128" transform="translate(634.49 91.4323) rotate(-45)" fill="#3A362E"/>
<rect width="128" height="128" transform="translate(91.4326 815.51) rotate(-45)" fill="#3A362E"/>
<rect width="128" height="128" transform="translate(181.942 725) rotate(-45)" fill="#6C8C4B"/>
<rect width="128" height="128" transform="translate(272.452 634.49) rotate(-45)" fill="#3A362E"/>
<rect width="128" height="128" transform="translate(362.961 543.981) rotate(-45)" fill="#6C8C4B"/>
<rect width="128" height="128" transform="translate(453.471 453.471) rotate(-45)" fill="#3A362E"/>
<rect width="128" height="128" transform="translate(543.981 362.961) rotate(-45)" fill="#6C8C4B"/>
<rect width="128" height="128" transform="translate(634.491 272.452) rotate(-45)" fill="#3A362E"/>
<rect width="128" height="128" transform="translate(725 181.942) rotate(-45)" fill="#6C8C4B"/>
<rect width="128" height="128" transform="translate(181.942 906.019) rotate(-45)" fill="#6C8C4B"/>
<rect width="128" height="128" transform="translate(272.452 815.51) rotate(-45)" fill="#3A362E"/>
<rect width="128" height="128" transform="translate(362.962 725) rotate(-45)" fill="#6C8C4B"/>
<rect width="128" height="128" transform="translate(453.471 634.49) rotate(-45)" fill="#3A362E"/>
<rect width="128" height="128" transform="translate(543.981 543.981) rotate(-45)" fill="#6C8C4B"/>
<rect width="128" height="128" transform="translate(634.491 453.471) rotate(-45)" fill="#3A362E"/>
<rect width="128" height="128" transform="translate(725 362.961) rotate(-45)" fill="#6C8C4B"/>
<rect width="128" height="128" transform="translate(815.51 272.452) rotate(-45)" fill="#3A362E"/>
<rect width="128" height="128" transform="translate(272.452 996.529) rotate(-45)" fill="#3A362E"/>
<rect width="128" height="128" transform="translate(362.961 906.019) rotate(-45)" fill="#6C8C4B"/>
<rect width="128" height="128" transform="translate(453.471 815.51) rotate(-45)" fill="#3A362E"/>
<rect width="128" height="128" transform="translate(543.98 725) rotate(-45)" fill="#6C8C4B"/>
<rect width="128" height="128" transform="translate(634.49 634.49) rotate(-45)" fill="#3A362E"/>
<rect width="128" height="128" transform="translate(725 543.981) rotate(-45)" fill="#6C8C4B"/>
<rect width="128" height="128" transform="translate(815.51 453.471) rotate(-45)" fill="#3A362E"/>
<rect width="128" height="128" transform="translate(906.019 362.961) rotate(-45)" fill="#6C8C4B"/>
<rect width="128" height="128" transform="translate(362.961 1087.04) rotate(-45)" fill="#6C8C4B"/>
<rect width="128" height="128" transform="translate(453.471 996.529) rotate(-45)" fill="#3A362E"/>
<rect width="128" height="128" transform="translate(543.981 906.019) rotate(-45)" fill="#6C8C4B"/>
<rect width="128" height="128" transform="translate(634.49 815.51) rotate(-45)" fill="#3A362E"/>
<rect width="128" height="128" transform="translate(725 725) rotate(-45)" fill="#6C8C4B"/>
<rect width="128" height="128" transform="translate(815.51 634.49) rotate(-45)" fill="#3A362E"/>
<rect width="128" height="128" transform="translate(906.02 543.981) rotate(-45)" fill="#6C8C4B"/>
<rect width="128" height="128" transform="translate(996.529 453.471) rotate(-45)" fill="#3A362E"/>
<rect width="128" height="128" transform="translate(453.471 1177.55) rotate(-45)" fill="#3A362E"/>
<rect width="128" height="128" transform="translate(543.981 1087.04) rotate(-45)" fill="#6C8C4B"/>
<rect width="128" height="128" transform="translate(634.491 996.529) rotate(-45)" fill="#3A362E"/>
<rect width="128" height="128" transform="translate(725 906.019) rotate(-45)" fill="#6C8C4B"/>
<rect width="128" height="128" transform="translate(815.51 815.51) rotate(-45)" fill="#3A362E"/>
<rect width="128" height="128" transform="translate(906.02 725) rotate(-45)" fill="#6C8C4B"/>
<rect width="128" height="128" transform="translate(996.529 634.49) rotate(-45)" fill="#3A362E"/>
<rect width="128" height="128" transform="translate(1087.04 543.981) rotate(-45)" fill="#6C8C4B"/>
<rect width="128" height="128" transform="translate(543.981 1268.06) rotate(-45)" fill="#6C8C4B"/>
<rect width="128" height="128" transform="translate(634.491 1177.55) rotate(-45)" fill="#3A362E"/>
<rect width="128" height="128" transform="translate(725 1087.04) rotate(-45)" fill="#6C8C4B"/>
<rect width="128" height="128" transform="translate(815.51 996.529) rotate(-45)" fill="#3A362E"/>
<rect width="128" height="128" transform="translate(906.02 906.019) rotate(-45)" fill="#6C8C4B"/>
<rect width="128" height="128" transform="translate(996.529 815.51) rotate(-45)" fill="#3A362E"/>
<rect width="128" height="128" transform="translate(1087.04 725) rotate(-45)" fill="#6C8C4B"/>
<rect width="128" height="128" transform="translate(1177.55 634.49) rotate(-45)" fill="#3A362E"/>
<rect width="128" height="128" transform="translate(634.491 1358.57) rotate(-45)" fill="#3A362E"/>
<rect width="128" height="128" transform="translate(725 1268.06) rotate(-45)" fill="#6C8C4B"/>
<rect width="128" height="128" transform="translate(815.51 1177.55) rotate(-45)" fill="#3A362E"/>
<rect width="128" height="128" transform="translate(906.02 1087.04) rotate(-45)" fill="#6C8C4B"/>
<rect width="128" height="128" transform="translate(996.529 996.529) rotate(-45)" fill="#3A362E"/>
<rect width="128" height="128" transform="translate(1087.04 906.019) rotate(-45)" fill="#6C8C4B"/>
<rect width="128" height="128" transform="translate(1177.55 815.51) rotate(-45)" fill="#3A362E"/>
<rect width="128" height="128" transform="translate(1268.06 725) rotate(-45)" fill="#6C8C4B"/>
</g>
<defs>
<clipPath id="clip0_43_214">
<rect width="1024" height="1024" fill="white" transform="translate(0.922852 725) rotate(-45)"/>
</clipPath>
</defs>
</svg>
