<svg width="256" height="256" viewBox="0 0 256 256" fill="none" xmlns="http://www.w3.org/2000/svg">
<style>
    @media (prefers-color-scheme: dark) {
      path {
        fill: white;
      }
    }
</style>
<path d="M147.809 158.499C152.709 158.499 157.364 158.452 162.015 158.567C162.533 158.579 163.361 159.448 163.483 160.036C165.216 168.44 166.923 176.85 168.483 185.287C169.293 189.663 167.103 192.18 162.704 192.182C139.699 192.2 149.322 192.198 126.316 192.181C121.728 192.177 120.641 189.456 120.54 184.771C119.845 152.744 119.845 125.587 119.845 92.3308C120.712 87.9731 123.156 85.8855 127.668 85.8735C137.108 85.8494 133.021 85.8517 142.461 85.8798C146.602 85.8918 149.011 87.7465 149.851 91.7646C151.757 100.882 153.553 110.022 155.439 119.383H139.967C139.018 114.634 138.04 109.833 137.104 105.022C136.714 103.015 136.287 101.85 135.232 101.244C134.676 101.649 134.607 102.451 134.607 103.962C134.607 127.85 134.607 143.44 136.115 172.609C136.618 174.872 138.593 177.184 142.461 177.188C143.459 177.189 144.241 177.189 144.843 177.19C145.352 177.189 145.959 177.189 146.678 177.188C150.335 177.183 151.175 176.084 150.474 172.495C149.582 167.935 148.734 163.368 147.809 158.499Z" fill="black"/>
<path d="M198 232.634H58C59.129 228.73 59.752 224.91 61.3348 221.54C63.1763 217.62 66.8783 215.784 71.2422 215.781C109.185 215.755 147.128 215.757 185.071 215.777C190.709 215.78 195.299 219.497 196.534 224.983C197.091 227.455 197.493 229.962 198 232.634Z" fill="black"/>
<path d="M128.122 62.8443C123.908 62.8443 119.684 62.9963 115.483 62.7576C114.114 62.6796 112.436 61.9138 111.524 60.9001C105.171 53.845 104.207 43.3466 108.953 35.1258C113.704 26.8935 123.349 22.541 132.625 24.4422C141.892 26.3417 149.216 34.1311 150.251 43.4872C150.979 50.0633 149.346 56.0685 144.738 60.9614C143.802 61.9551 142.134 62.6854 140.761 62.7605C136.559 62.9917 132.336 62.8448 128.122 62.8443Z" fill="black"/>
<path d="M128.341 197.611C143.827 197.611 159.312 197.608 174.798 197.613C179.289 197.615 182.183 200.106 182.173 203.931C182.162 207.795 179.296 210.279 174.785 210.28C143.722 210.286 112.66 210.287 81.5971 210.28C76.9858 210.279 74.344 207.944 74.3435 203.926C74.3429 199.914 76.9784 197.614 81.6091 197.613C97.1862 197.608 112.763 197.611 128.341 197.611Z" fill="black"/>
<path d="M128.103 81C121.057 81 114.011 81.0127 106.965 80.9955C102.792 80.9851 99.9222 78.3175 100.001 74.5812C100.08 70.8958 102.839 68.3418 106.879 68.3361C121.063 68.3154 135.247 68.316 149.43 68.3355C153.656 68.3413 156.436 70.9578 156.388 74.7733C156.341 78.4839 153.615 80.9817 149.515 80.9943C142.377 81.0161 135.241 81 128.103 81Z" fill="black"/>
<path d="M105.475 90.0051C105.889 87.6081 107.969 85.8574 110.402 85.8574H111.753C114.515 85.8574 116.753 88.0959 116.753 90.8574V186.971C116.753 189.732 114.515 191.971 111.753 191.971H93.7754C90.6733 191.971 88.3198 189.175 88.8486 186.118L105.475 90.0051Z" fill="black"/>
</svg>
