<svg width="29" height="22" viewBox="0 0 29 22" fill="none" xmlns="http://www.w3.org/2000/svg">
<g clip-path="url(#clip0_23_65)">
<path d="M23.974 1.83484C22.118 0.966421 20.1544 0.349369 18.1353 0C17.8838 0.454704 17.5899 1.06628 17.3873 1.55282C15.2103 1.22548 13.0533 1.22548 10.9163 1.55282C10.7138 1.06639 10.4133 0.454704 10.1595 0C8.13833 0.34953 6.1731 0.968154 4.31619 1.83938C0.621078 7.42329 -0.380641 12.8683 0.120163 18.2363C2.57101 20.0665 4.94612 21.1784 7.28122 21.9059C7.86155 21.1079 8.37455 20.2629 8.81492 19.3799C7.97651 19.0607 7.16826 18.6674 6.39978 18.2045C6.60202 18.0546 6.79949 17.8984 6.9919 17.7361C11.6486 19.9142 16.7084 19.9142 21.3096 17.7361C21.5028 17.8973 21.7002 18.0535 21.9016 18.2045C21.1319 18.6686 20.3221 19.0627 19.482 19.3822C19.9249 20.2689 20.437 21.1146 21.0157 21.9081C23.353 21.1807 25.7304 20.0689 28.1812 18.2363C28.7689 12.0135 27.1774 6.61846 23.974 1.83484ZM9.44938 14.9351C8.05144 14.9351 6.90501 13.6301 6.90501 12.0409C6.90501 10.4517 8.02701 9.14437 9.44938 9.14437C10.8719 9.14437 12.0182 10.4493 11.9938 12.0409C11.996 13.6301 10.8719 14.9351 9.44938 14.9351ZM18.852 14.9351C17.4541 14.9351 16.3077 13.6301 16.3077 12.0409C16.3077 10.4517 17.4296 9.14437 18.852 9.14437C20.2745 9.14437 21.4208 10.4493 21.3964 12.0409C21.3964 13.6301 20.2745 14.9351 18.852 14.9351Z" fill="hsl(var(--neutral))"/>
</g>
<defs>
<clipPath id="clip0_23_65">
<rect width="28.3015" height="22" fill="hsl(var(--neutral))"/>
</clipPath>
</defs>
</svg>
