<svg viewBox="0 0 130 128" fill="none" xmlns="http://www.w3.org/2000/svg">
<path d="M66.2996 128C62.4439 127.847 58.569 127.876 54.7362 127.491C50.8639 127.103 47.0158 126.388 43.1869 125.658C39.4999 124.955 35.9216 123.791 32.4788 122.317C30.1163 121.306 27.8445 120.046 25.6367 118.725C20.2916 115.525 15.7851 111.36 12.1237 106.341C9.47223 102.706 7.26567 98.8071 5.78269 94.5282C5.10512 92.5735 4.17699 90.6942 3.63493 88.7063C2.45878 84.3877 1.64698 79.9899 1.23404 75.5244C0.776368 70.5731 0.493835 65.6127 0.704776 60.6422C0.839011 57.4947 1.00521 54.3524 1.43731 51.2113C1.94102 47.5511 2.67867 43.9536 3.52115 40.3689C4.54645 36.0108 6.35798 31.9671 8.31653 27.9515C9.89283 24.7197 12.2388 22.0925 14.3341 19.2557C16.6762 16.0826 19.614 13.5744 22.8088 11.2924C27.2871 8.09245 32.1835 5.75293 37.3918 4.07052C41.7922 2.65019 46.2897 1.67347 50.8958 1.02914C55.6593 0.361803 60.4125 -0.0856463 65.204 0.014071C68.8629 0.0907767 72.5498 0.186659 76.1627 0.69803C79.5607 1.17872 83.0048 1.39989 86.3543 2.27561C91.6176 3.6512 96.7249 5.41671 101.542 7.95311C104.916 9.72884 108.038 11.9188 110.827 14.4833C113.056 16.5314 114.997 18.8964 116.983 21.1938C117.796 22.1347 118.438 23.238 119.068 24.3195C120.312 26.4545 121.635 28.5601 122.671 30.796C124.804 35.3984 126.209 40.2475 127.229 45.218C128.27 50.2857 128.83 55.4134 129.036 60.5617C129.185 64.3024 129.083 68.075 128.784 71.8093C128.284 78.0697 127.486 84.3302 125.498 90.3056C123.58 96.07 121.179 101.64 117.444 106.576C112.005 113.766 105.108 118.979 96.8246 122.461C92.0254 124.478 87.0037 125.68 81.9003 126.587C76.7431 127.504 71.5488 128.019 66.2971 128.001L66.2996 128Z" fill="#E8A940"/>
<path d="M23.4544 45.0601C22.726 46.6141 24.1829 49.3336 27.3394 52.2958C31.2729 55.9865 33.4096 56.7149 40.014 56.7635C44.9187 56.7635 45.8899 56.6178 47.881 55.6466C51.0375 54.044 54.194 51.1789 55.5537 48.6051C56.5249 46.7112 56.6221 46.2256 56.1364 45.1572C55.7479 44.2346 55.2138 43.8946 54.194 43.8946C53.0771 43.8946 52.5429 44.3803 51.1832 46.4199C48.0266 51.1789 42.8791 53.3156 37.2945 52.1501C32.924 51.2275 30.3988 49.5764 28.3592 46.2742C27.1451 44.2831 26.6595 43.8946 25.4455 43.8946C24.3771 43.8946 23.8429 44.186 23.4544 45.0601Z" fill="black"/>
<path d="M73.7572 44.6716C71.1835 47.2939 78.5163 55.1124 84.8778 56.5692C88.6657 57.3948 95.0758 56.9091 97.8438 55.598C101.097 54.044 103.671 51.6645 105.274 48.7508C106.439 46.6626 106.585 46.0313 106.099 45.0601C105.711 44.2345 105.177 43.8946 104.157 43.8946C102.943 43.8946 102.409 44.3317 100.855 46.6626C97.6981 51.4217 92.3078 53.4127 86.5289 51.9073C82.4498 50.8875 80.5073 49.5278 78.5648 46.5169C76.768 43.7004 75.3112 43.1662 73.7572 44.6716Z" fill="black"/>
<path d="M59.3211 86.0747C56.4447 86.5823 55.1474 87.1463 54.3578 88.1051C53.8172 89.2342 53.7532 89.8095 54.1322 90.5868C55.0346 91.9404 55.937 91.9968 63.1 90.9816C66.8789 90.4176 69.0786 90.4176 72.6883 90.8688C77.144 91.4892 77.3696 91.4892 78.3284 90.3048C79.5128 88.8948 79.5128 88.6127 78.554 87.3155C77.144 85.3415 66.9917 84.721 59.3211 86.0747Z" fill="black"/>
</svg>
