<svg viewBox="0 0 129 128" fill="none" xmlns="http://www.w3.org/2000/svg">
<path d="M65.7726 128C61.9169 127.847 58.042 127.876 54.2093 127.491C50.3369 127.103 46.4888 126.388 42.6599 125.658C38.973 124.955 35.3946 123.791 31.9518 122.317C29.5893 121.306 27.3175 120.046 25.1097 118.725C19.7646 115.525 15.2581 111.36 11.5967 106.341C8.94526 102.706 6.73869 98.8071 5.25571 94.5282C4.57815 92.5735 3.65001 90.6942 3.10795 88.7063C1.9318 84.3877 1.12 79.9899 0.707067 75.5244C0.24939 70.5731 -0.0331421 65.6127 0.177798 60.6422C0.312033 57.4947 0.478229 54.3524 0.910337 51.2113C1.41404 47.5511 2.15169 43.9536 2.99417 40.3689C4.01947 36.0108 5.83101 31.9671 7.78956 27.9515C9.36586 24.7197 11.7118 22.0925 13.8071 19.2557C16.1492 16.0826 19.087 13.5744 22.2818 11.2924C26.7601 8.09245 31.6565 5.75293 36.8648 4.07052C41.2652 2.65019 45.7627 1.67347 50.3689 1.02914C55.1323 0.361803 59.8855 -0.0856463 64.677 0.014071C68.3359 0.0907767 72.0229 0.186659 75.6357 0.69803C79.0338 1.17872 82.4779 1.39989 85.8273 2.27561C91.0906 3.6512 96.1979 5.41671 101.015 7.95311C104.389 9.72884 107.511 11.9188 110.3 14.4833C112.529 16.5314 114.471 18.8964 116.456 21.1938C117.269 22.1347 117.911 23.238 118.541 24.3195C119.785 26.4545 121.108 28.5601 122.144 30.796C124.277 35.3984 125.682 40.2475 126.702 45.218C127.743 50.2857 128.303 55.4134 128.509 60.5617C128.658 64.3024 128.556 68.075 128.257 71.8093C127.757 78.0697 126.959 84.3302 124.972 90.3056C123.053 96.07 120.652 101.64 116.917 106.576C111.478 113.766 104.581 118.979 96.2976 122.461C91.4984 124.478 86.4768 125.68 81.3733 126.587C76.2161 127.504 71.0219 128.019 65.7701 128.001L65.7726 128Z" fill="#CC6B3D"/>
<path d="M48.7063 32.9735C44.6757 35.353 38.1198 37.7811 35.886 37.7811C35.2547 37.7811 34.2349 38.2181 33.6036 38.7037C32.6324 39.4807 32.5352 39.8206 32.9237 40.9861C33.3608 42.1516 33.7493 42.443 35.3033 42.5401C38.9939 42.8315 48.9977 38.9951 53.9509 35.4015C56.0391 33.8476 56.5733 32.245 55.4078 31.0795C54.388 30.0598 52.9797 30.4968 48.7063 32.9735Z" fill="black"/>
<path d="M72.9872 31.4195C72.113 33.0706 72.453 33.8476 74.5897 35.4016C79.2516 38.8009 89.0611 42.6373 93.1888 42.6373C94.9856 42.6373 96.0539 41.3261 95.5683 39.7236C95.1798 38.5095 94.2086 38.0239 91.4891 37.5869C88.3812 37.1012 82.2139 34.6246 78.8631 32.4393C75.5609 30.3026 73.7641 30.0112 72.9872 31.4195Z" fill="black"/>
<path d="M22.9201 57.8856C22.1917 59.4396 23.6486 62.1591 26.8051 65.1213C30.7386 68.812 32.8753 69.5404 39.4797 69.589C44.3844 69.589 45.3556 69.4433 47.3467 68.4721C50.5032 66.8695 53.6597 64.0044 55.0194 61.4306C55.9906 59.5367 56.0878 59.0511 55.6021 57.9827C55.2136 57.0601 54.6795 56.7201 53.6597 56.7201C52.5428 56.7201 52.0086 57.2058 50.6489 59.2454C47.4923 64.0044 42.3448 66.1411 36.7602 64.9756C32.3897 64.053 29.8645 62.4019 27.8249 59.0997C26.6108 57.1086 26.1252 56.7201 24.9112 56.7201C23.8428 56.7201 23.3086 57.0115 22.9201 57.8856Z" fill="black"/>
<path d="M73.2302 57.4971C70.6564 60.1194 77.9892 67.9379 84.3508 69.3947C88.1386 70.2203 94.5488 69.7346 97.3168 68.4235C100.57 66.8695 103.144 64.49 104.747 61.5763C105.912 59.4881 106.058 58.8568 105.572 57.8856C105.184 57.06 104.65 56.7201 103.63 56.7201C102.416 56.7201 101.882 57.1572 100.328 59.4881C97.1711 64.2472 91.7807 66.2382 86.0019 64.7328C81.9227 63.713 79.9803 62.3533 78.0378 59.3424C76.241 56.5259 74.7842 55.9917 73.2302 57.4971Z" fill="black"/>
<path d="M70.8017 85.1773C65.4114 86.3427 57.5444 89.1108 53.3195 91.3446C49.8231 93.2385 49.4346 93.5784 49.2889 94.9867C49.1432 96.2493 49.3375 96.6378 50.4058 97.1234C51.5228 97.6091 52.0569 97.4634 54.9706 95.9094C59.4383 93.4813 66.5283 90.9561 71.773 89.9363C74.2011 89.4993 76.4349 88.9165 76.7748 88.6251C78.1831 87.5082 76.8719 84.3517 75.0266 84.4488C74.5895 84.4488 72.6956 84.7888 70.8017 85.1773Z" fill="black"/>
</svg>
