<svg viewBox="0 0 129 128" fill="none" xmlns="http://www.w3.org/2000/svg">
<path d="M65.8266 128C61.9709 127.847 58.0959 127.876 54.2632 127.491C50.3909 127.103 46.5428 126.388 42.7139 125.658C39.0269 124.955 35.4486 123.791 32.0058 122.317C29.6433 121.306 27.3715 120.046 25.1636 118.725C19.8185 115.525 15.3121 111.36 11.6507 106.341C8.99921 102.706 6.79264 98.8071 5.30967 94.5282C4.6321 92.5735 3.70396 90.6942 3.16191 88.7063C1.98576 84.3877 1.17395 79.9899 0.761023 75.5244C0.303345 70.5731 0.020813 65.6127 0.231754 60.6422C0.365988 57.4947 0.532184 54.3524 0.964293 51.2113C1.46799 47.5511 2.20565 43.9536 3.04813 40.3689C4.07343 36.0108 5.88496 31.9671 7.84351 27.9515C9.41981 24.7197 11.7657 22.0925 13.8611 19.2557C16.2031 16.0826 19.141 13.5744 22.3358 11.2924C26.8141 8.09245 31.7105 5.75293 36.9188 4.07052C41.3191 2.65019 45.8166 1.67347 50.4228 1.02914C55.1862 0.361803 59.9394 -0.0856463 64.731 0.014071C68.3898 0.0907767 72.0768 0.186659 75.6897 0.69803C79.0877 1.17872 82.5318 1.39989 85.8813 2.27561C91.1446 3.6512 96.2519 5.41671 101.069 7.95311C104.443 9.72884 107.565 11.9188 110.354 14.4833C112.583 16.5314 114.524 18.8964 116.51 21.1938C117.323 22.1347 117.965 23.238 118.595 24.3195C119.839 26.4545 121.162 28.5601 122.198 30.796C124.331 35.3984 125.736 40.2475 126.756 45.218C127.797 50.2857 128.357 55.4134 128.563 60.5617C128.712 64.3024 128.61 68.075 128.311 71.8093C127.811 78.0697 127.013 84.3302 125.025 90.3056C123.107 96.07 120.706 101.64 116.971 106.576C111.532 113.766 104.635 118.979 96.3516 122.461C91.5524 124.478 86.5307 125.68 81.4272 126.587C76.2701 127.504 71.0758 128.019 65.824 128.001L65.8266 128Z" fill="#6C8C4B"/>
<path d="M23.3552 40.0204C21.1657 42.2138 25.642 48.3065 31.4805 51.0848C33.8646 52.2059 34.7891 52.3521 39.314 52.3521C44.1308 52.3521 44.6173 52.2546 47.6826 50.7436C49.7747 49.72 51.575 48.404 52.5967 47.088C56.0998 42.7987 56.5864 40.2641 54.0563 39.5817C52.9859 39.338 52.548 39.533 51.7696 40.654C48.753 44.6509 46.3689 46.6493 43.4983 47.4779C37.4164 49.2326 31.2373 47.1367 27.9774 42.2138C26.0799 39.3867 24.6689 38.7044 23.3552 40.0204Z" fill="black"/>
<path d="M73.2421 40.4416C72.7059 41.2227 72.6571 41.8084 73.0471 42.8823C73.9246 45.3718 77.6781 49.0328 81.1391 50.7413C84.1614 52.2545 84.6976 52.3521 89.5236 52.3521C94.1545 52.3521 94.9345 52.2057 97.4206 50.9853C100.687 49.3745 103.709 46.5433 105.123 43.8098C106.098 41.9061 106.098 41.7108 105.366 40.5881C104.099 38.6356 102.393 39.0749 101.077 41.662C99.8092 44.1515 96.6406 46.6409 93.6183 47.5196C88.0612 49.1304 81.6266 47.1291 78.458 42.8335C77.5806 41.6132 76.6056 40.344 76.3132 40.0023C75.582 39.0749 74.0708 39.3189 73.2421 40.4416Z" fill="black"/>
<path d="M37.9678 69.7044C37.0431 70.6302 37.2864 71.9946 38.9412 74.8694C42.4942 81.0576 50.0382 86.2713 57.8256 87.928C70.3341 90.5592 84.6434 84.5172 89.7538 74.3821C91.1166 71.7509 91.214 70.4841 90.2405 69.607C88.8291 68.4376 87.369 69.2659 85.7141 72.1895C81.4311 79.4497 73.3517 83.8837 64.3475 83.835C54.954 83.835 47.556 79.8395 42.7863 72.2869C40.7421 69.0223 39.3793 68.2914 37.9678 69.7044Z" fill="black"/>
</svg>
