<svg width="75" height="22" viewBox="0 0 75 22" fill="none" xmlns="http://www.w3.org/2000/svg">
<path d="M13.7875 18.95C12.55 18.6375 11.4375 18.05 10.55 17.2C9.175 15.8875 8.4125 14.0625 8.4125 12.075C8.4125 11.25 8.55 10.45 8.8 9.7125C8.8 9.7 8.8 9.7 8.8 9.6875H8.8125C9.0875 8.8625 9.5125 8.1125 10.075 7.4625L8.8875 6.6875C9.725 6.075 10.275 5.1 10.275 3.9875C10.275 2.5875 9.4125 1.3875 8.1875 0.8875C7.8 0.7125 7.375 0.625 6.9375 0.625C5.1 0.625 3.6 2.125 3.6 3.9625C3.6 5.075 4.15 6.0625 4.9875 6.6625L2.575 8.2625C2.575 8.8 2.7 9.225 2.95 9.6875H5.075C5.0625 9.8875 5.0625 10.15 5.0625 10.475C5.025 11.6375 4.675 13.5125 1.9375 15.6125C1.225 16.15 0.6875 16.925 0.3625 17.85C0.3625 17.8625 0.35 17.8625 0.35 17.875C0.3375 17.9125 0.325 17.95 0.3125 17.9875C0.1125 18.6125 0 19.3 0 20.05C0 20.1375 0.1875 21.4 6.9375 21.4C13.6875 21.4 13.875 20.1375 13.875 20.05C13.875 19.6625 13.85 19.3 13.7875 18.95Z" fill="hsl(var(--neutral))"/>
<path d="M28.35 12.7625V17.5C28.35 17.6625 28.2125 17.8 28.05 17.8H26.1125C25.95 17.8 25.8125 17.6625 25.8125 17.5V13.1625C25.8125 11.7375 25.4125 11.0875 24.4125 11.0875C23.2375 11.0875 22.6625 11.8375 22.6625 13.4625V17.5125C22.6625 17.675 22.525 17.8125 22.3625 17.8125H20.425C20.2625 17.8125 20.125 17.675 20.125 17.5125V6.45002C20.125 6.28752 20.2625 6.15002 20.425 6.15002H22.3625C22.525 6.15002 22.6625 6.28752 22.6625 6.45002V9.72502C23.325 9.07502 23.95 8.86252 25.075 8.86252C27.1375 8.86252 28.35 10.075 28.35 12.7625Z" fill="hsl(var(--neutral))"/>
<path d="M33.7625 8.86255C31.0875 8.86255 29.4375 10.7625 29.4375 13.4C29.4375 15.6875 30.7625 17.9375 33.9375 17.9375C35.3 17.9375 36.6375 17.7375 37.4875 17.275C37.6125 17.2 37.675 17.05 37.6125 16.9125L37 15.5875C36.9375 15.4375 36.75 15.3875 36.6125 15.4625C35.7375 15.925 35.225 16.0125 34.0875 16.0125C32.95 16.0125 32.0125 15.05 31.95 14.125H37.7125C37.8375 14.125 37.9375 14.025 37.95 13.9C37.9625 13.7375 37.975 13.5625 37.975 13.4375C37.975 10.6 36.3375 8.86255 33.7625 8.86255ZM31.9125 12.625C31.9875 11.5 32.6625 10.7875 33.7875 10.7875C34.9125 10.7875 35.525 11.5125 35.6125 12.625H31.9125Z" fill="hsl(var(--neutral))"/>
<path d="M47.0379 16.9L47.6504 15.575C47.7129 15.425 47.9004 15.375 48.0379 15.45C48.8129 15.875 49.6379 16 50.6004 16C51.7754 16 52.2129 15.6875 52.2129 15.2C52.2129 13.7625 46.9004 15.2375 46.9004 11.7125C46.9004 10.05 48.4004 8.86255 50.9629 8.86255C52.0629 8.86255 53.1879 9.11255 54.0254 9.52505C54.1629 9.58755 54.2129 9.75005 54.1504 9.88755L53.5379 11.2C53.4754 11.3375 53.3004 11.4 53.1629 11.3375C52.3879 10.95 51.6879 10.8 50.9629 10.8C49.8254 10.8 49.3254 11.1625 49.3254 11.6125C49.3254 13.1125 54.6379 11.6625 54.6379 15.125C54.6379 16.7625 53.1254 17.925 50.4879 17.925C49.1254 17.925 47.9879 17.725 47.1379 17.2625C47.0254 17.1875 46.9629 17.025 47.0379 16.9Z" fill="hsl(var(--neutral))"/>
<path d="M54.7754 17.2375C54.7754 16.8375 55.0879 16.55 55.4629 16.55C55.8379 16.55 56.1254 16.825 56.1254 17.2375C56.1254 17.65 55.8254 17.9375 55.4629 17.9375C55.1004 17.9375 54.7754 17.6375 54.7754 17.2375Z" fill="hsl(var(--neutral))"/>
<path d="M61.1875 15.0125C61.1875 13.3125 62.375 12.1 63.975 12.1C65.5875 12.1 66.75 13.3125 66.75 15.0125C66.75 16.7125 65.575 17.9375 63.975 17.9375C62.375 17.9375 61.1875 16.7125 61.1875 15.0125ZM65.775 15.0125C65.775 13.8 65 13.0125 63.975 13.0125C62.95 13.0125 62.1625 13.8 62.1625 15.0125C62.1625 16.225 62.9375 17.025 63.975 17.025C65.0125 17.025 65.775 16.225 65.775 15.0125Z" fill="hsl(var(--neutral))"/>
<path d="M74.9996 14.575V17.65C74.9996 17.7625 74.9121 17.85 74.7996 17.85H74.1746C74.0621 17.85 73.9746 17.7625 73.9746 17.65V14.6875C73.9746 13.5625 73.6496 13.0125 72.7371 13.0125C71.8746 13.0125 71.7496 13.675 71.7496 14.9125V17.65C71.7496 17.7625 71.6621 17.85 71.5496 17.85H70.9246C70.8121 17.85 70.7246 17.7625 70.7246 17.65V14.6875C70.7246 13.5625 70.4496 13.0125 69.5496 13.0125C68.7121 13.0125 68.4996 13.675 68.4996 14.9125V17.65C68.4996 17.7625 68.4121 17.85 68.2996 17.85H67.6746C67.5621 17.85 67.4746 17.7625 67.4746 17.65V12.3625C67.4746 12.25 67.5621 12.15 67.6746 12.15H68.2496C68.3621 12.15 68.4496 12.2375 68.4496 12.3625V12.6625C68.5246 12.5375 68.8371 12.1 69.6996 12.1C70.4746 12.1 70.9496 12.375 71.2996 12.925C71.2996 12.925 71.6621 12.1 72.9121 12.1C74.2996 12.1 74.9996 12.9 74.9996 14.575Z" fill="hsl(var(--neutral))"/>
<path d="M59.1877 17.025C58.0627 17.025 57.3752 16.25 57.3752 15.0125C57.3752 13.775 58.0627 13.0125 59.1877 13.0125C59.6877 13.0125 60.1627 13.1875 60.5127 13.5375C60.6002 13.625 60.7377 13.5625 60.7377 13.4375V12.6375C60.7377 12.55 60.6877 12.475 60.6127 12.4375C60.2127 12.2125 59.7252 12.1 59.1877 12.1C57.4252 12.1 56.3252 13.3125 56.3252 15.0125C56.3252 16.7125 57.4252 17.9375 59.1877 17.9375C59.7127 17.9375 60.2002 17.825 60.6127 17.6C60.6877 17.5625 60.7377 17.4875 60.7377 17.4V16.6C60.7377 16.475 60.5877 16.4125 60.5127 16.5C60.1502 16.85 59.6877 17.025 59.1877 17.025Z" fill="hsl(var(--neutral))"/>
<path d="M41.2498 11.6C41.2498 11.125 41.7498 10.7625 42.9248 10.7625C43.6623 10.7625 44.3748 10.925 45.1873 11.325C45.3373 11.4 45.5123 11.3375 45.5748 11.1875L46.1998 9.83752C46.2623 9.70002 46.2123 9.52502 46.0748 9.46252C45.2123 9.03752 44.0623 8.77502 42.9248 8.77502C40.2873 8.77502 38.7373 9.98752 38.7373 11.7C38.7373 15.3125 44.1998 13.8 44.1998 15.2875C44.1998 15.7875 43.7498 16.1125 42.5373 16.1125C41.5498 16.1125 40.6873 15.975 39.8998 15.5375C39.7498 15.4625 39.5748 15.5125 39.4998 15.6625L38.8623 17.025C38.7998 17.1625 38.8498 17.325 38.9873 17.4C39.8623 17.8875 41.0373 18.0875 42.4373 18.0875C45.1373 18.0875 46.6998 16.8875 46.6998 15.2125C46.7123 11.65 41.2498 13.15 41.2498 11.6Z" fill="hsl(var(--neutral))"/>
<path d="M15.9625 15.7375C13.825 15.7375 12.3 14.2375 12.3 12.075C12.3 9.91252 13.825 8.41252 15.9625 8.41252C16.85 8.41252 17.6375 8.68752 18.3 9.22502C18.5125 9.40002 18.8375 9.25002 18.8375 8.97502V7.06252C18.8375 6.91252 18.75 6.77502 18.6125 6.71252C17.8 6.33752 16.8625 6.15002 15.8375 6.15002C12.2625 6.15002 9.625 8.61252 9.625 12.075C9.625 15.5375 12.275 18 15.8125 18C16.85 18 17.7875 17.8 18.6125 17.4375C18.75 17.375 18.8375 17.2375 18.8375 17.0875V15.175C18.8375 14.9 18.5125 14.75 18.3 14.925C17.625 15.45 16.85 15.7375 15.9625 15.7375Z" fill="hsl(var(--neutral))"/>
</svg>