<svg width="24" height="24" viewBox="0 0 24 24" fill="none" xmlns="http://www.w3.org/2000/svg">
<g clip-path="url(#clip0_21_161)">
<path d="M12 0C5.37 0 1.75145e-06 5.37 1.75145e-06 12C-0.00135931 14.5191 0.790578 16.9747 2.26346 19.0184C3.73634 21.0621 5.81537 22.5901 8.2056 23.3856C8.8056 23.49 9.03 23.13 9.03 22.8144C9.03 22.53 9.0144 21.5856 9.0144 20.58C6 21.1356 5.22 19.8456 4.98 19.17C4.8444 18.8256 4.26 17.76 3.75 17.4756C3.33 17.25 2.73 16.6956 3.7344 16.68C4.68 16.6644 5.3544 17.55 5.58 17.91C6.66 19.7244 8.3844 19.2144 9.0744 18.9C9.18 18.12 9.4944 17.5944 9.84 17.2944C7.17 16.9944 4.38 15.96 4.38 11.37C4.38 10.0644 4.8444 8.9856 5.61 8.1444C5.49 7.8444 5.07 6.6156 5.73 4.9644C5.73 4.9644 6.7344 4.65 9.03 6.1956C10.0069 5.92447 11.0162 5.78801 12.03 5.79C13.05 5.79 14.07 5.9244 15.03 6.1944C17.3244 4.6344 18.33 4.9656 18.33 4.9656C18.99 6.6156 18.57 7.8456 18.45 8.1456C19.2144 8.9856 19.68 10.05 19.68 11.37C19.68 15.9756 16.8756 16.9956 14.2056 17.2956C14.64 17.67 15.0156 18.39 15.0156 19.5156C15.0156 21.12 15 22.41 15 22.8156C15 23.13 15.2256 23.5044 15.8256 23.3844C18.2076 22.5802 20.2775 21.0492 21.7439 19.007C23.2103 16.9648 23.9993 14.5141 24 12C24 5.37 18.63 0 12 0Z" fill="hsl(var(--neutral))"/>
</g>
<defs>
<clipPath id="clip0_21_161">
<rect width="24" height="24" fill="hsl(var(--neutral))"/>
</clipPath>
</defs>
</svg>
