<svg width="25" height="24" viewBox="0 0 25 24" fill="none" xmlns="http://www.w3.org/2000/svg">
<g clip-path="url(#clip0_23_33)">
<path d="M12.3015 2.16225C15.5056 2.16225 15.8851 2.17444 17.1505 2.23209C18.3205 2.28553 18.9559 2.481 19.3788 2.64534C19.9389 2.86303 20.3386 3.12309 20.7585 3.543C21.1785 3.96291 21.4385 4.36266 21.6562 4.92272C21.8205 5.34562 22.016 5.98106 22.0694 7.15097C22.1271 8.41641 22.1393 8.79591 22.1393 12C22.1393 15.2042 22.1271 15.5837 22.0694 16.849C22.016 18.019 21.8205 18.6544 21.6562 19.0773C21.4385 19.6373 21.1784 20.0372 20.7585 20.4571C20.3386 20.877 19.9389 21.1371 19.3788 21.3547C18.9559 21.519 18.3205 21.7146 17.1505 21.7679C15.8853 21.8257 15.5058 21.8378 12.3015 21.8378C9.09714 21.8378 8.71764 21.8257 7.45248 21.7679C6.28248 21.7145 5.64714 21.519 5.22423 21.3547C4.66417 21.1371 4.26433 20.877 3.84442 20.4571C3.42451 20.0371 3.16445 19.6373 2.94686 19.0773C2.78251 18.6545 2.58695 18.019 2.53361 16.849C2.47586 15.5837 2.46367 15.2042 2.46367 12C2.46367 8.79591 2.47586 8.41641 2.53361 7.15106C2.58704 5.98106 2.78251 5.34562 2.94686 4.92272C3.16445 4.36266 3.42451 3.96291 3.84442 3.543C4.26442 3.123 4.66417 2.86303 5.22423 2.64534C5.64704 2.481 6.28248 2.28553 7.45248 2.23209C8.71783 2.17444 9.09733 2.16225 12.3015 2.16225ZM12.3015 0C9.04248 0 8.63383 0.0137812 7.35395 0.0721875C6.07661 0.1305 5.20426 0.333375 4.44104 0.63C3.65186 0.936656 2.98267 1.347 2.31554 2.01412C1.64842 2.68125 1.23817 3.35044 0.931514 4.13953C0.634795 4.90284 0.432014 5.77519 0.373701 7.05244C0.315295 8.33231 0.301514 8.74097 0.301514 12C0.301514 15.259 0.315295 15.6677 0.373701 16.9476C0.432014 18.2249 0.634795 19.0972 0.931514 19.8605C1.23808 20.6496 1.64842 21.3188 2.31554 21.986C2.98267 22.6531 3.65186 23.0633 4.44104 23.37C5.20436 23.6667 6.07661 23.8695 7.35386 23.9278C8.63383 23.9862 9.04248 24 12.3015 24C15.5605 24 15.9692 23.9862 17.2491 23.9278C18.5263 23.8695 19.3987 23.6667 20.1619 23.37C20.9511 23.0634 21.6203 22.6531 22.2874 21.986C22.9545 21.3188 23.3649 20.6497 23.6715 19.8605C23.9681 19.0972 24.171 18.2249 24.2293 16.9477C24.2877 15.6677 24.3015 15.259 24.3015 12C24.3015 8.74097 24.2877 8.33231 24.2293 7.05244C24.171 5.77519 23.9681 4.90284 23.6715 4.13962C23.3649 3.35044 22.9545 2.68125 22.2874 2.01412C21.6203 1.347 20.9511 0.936562 20.162 0.63C19.3987 0.333375 18.5263 0.1305 17.2491 0.0721875C15.9692 0.0137812 15.5605 0 12.3015 0ZM12.3015 5.83781C8.8982 5.83781 6.13933 8.59688 6.13933 12C6.13933 15.4033 8.8982 18.1622 12.3015 18.1622C15.7047 18.1622 18.4637 15.4033 18.4637 12C18.4637 8.59678 15.7047 5.83781 12.3015 5.83781ZM12.3015 16C10.0924 16 8.30148 14.2091 8.30148 12C8.30148 9.79088 10.0924 7.99997 12.3015 7.99997C14.5106 7.99997 16.3015 9.79088 16.3015 12C16.3015 14.2091 14.5106 16 12.3015 16ZM20.1471 5.59434C20.1471 6.38972 19.5025 7.03434 18.7071 7.03434C17.9118 7.03434 17.2671 6.38972 17.2671 5.59434C17.2671 4.79906 17.9118 4.15434 18.7071 4.15434C19.5025 4.15434 20.1471 4.79906 20.1471 5.59434Z" fill="hsl(var(--neutral))"/>
</g>
<defs>
<clipPath id="clip0_23_33">
<rect width="24" height="24" fill="hsl(var(--neutral))" transform="translate(0.301514)"/>
</clipPath>
</defs>
</svg>